<svg width="441" height="401" viewBox="0 0 441 401" fill="none" xmlns="http://www.w3.org/2000/svg">
<g clip-path="url(#clip0_843_2748)">
<path d="M211.968 80.3511C216.877 75.3498 223.435 73.8316 226.614 76.9597C229.793 80.0879 228.39 86.6769 223.478 91.6793C221.543 93.7045 219.152 95.2365 216.504 96.147L195.435 117.075L185.834 106.968L207.625 87.4102C208.488 84.7437 209.978 82.3232 211.968 80.3511V80.3511Z" fill="#FFB6B6"/>
<path d="M144.584 63.0763L166.675 112.133L201.951 93.019L214.576 99.726C214.576 99.726 185.739 147.985 165.994 142.491C146.249 136.998 111.187 87.185 117.504 71.8113C123.821 56.4377 144.584 63.0763 144.584 63.0763Z" fill="#673AB7"/>
<path d="M246.988 90.7676C241.86 85.9912 240.165 79.4708 243.202 76.2044C246.24 72.938 252.858 74.1626 257.987 78.9414C260.063 80.8221 261.658 83.173 262.639 85.7974L284.113 106.31L274.282 116.191L254.156 94.9208C251.47 94.1293 249.012 92.7051 246.988 90.7676Z" fill="#A0616A"/>
<path d="M355.155 93.9295L313.707 138.101C313.707 138.101 304.399 147.32 289.086 134.026C273.772 120.731 256.747 98.9202 256.747 98.9202L266.298 88.5145L283.216 103.624C283.216 103.624 293.261 107.669 293.96 110.287C294.658 112.905 292.705 113.988 295.844 113.149C298.982 112.31 299.043 110.439 299.24 113.277C299.437 116.115 297.52 119.432 301.145 116.219C304.771 113.006 305.853 114.961 305.853 114.961L332.344 79.8348C332.344 79.8348 349.462 66.2848 354.383 78.4309C359.304 90.5769 355.155 93.9295 355.155 93.9295V93.9295Z" fill="#FA6F20"/>
<path d="M134.898 390.018L151.006 390.016L158.668 327.823L134.895 327.825L134.898 390.018Z" fill="#FFB6B6"/>
<path d="M190.085 389.652C190.587 390.498 190.852 393.227 190.852 394.21C190.852 397.232 188.404 399.682 185.385 399.682H135.5C133.44 399.682 131.771 398.011 131.771 395.949V393.87C131.771 393.87 129.303 387.622 134.383 379.921C134.383 379.921 140.698 385.951 150.134 376.506L152.916 371.46L173.057 386.205L184.221 387.581C186.663 387.882 188.829 387.534 190.085 389.652H190.085Z" fill="#2F2E41"/>
<path d="M320.548 103.013H360.467V43.9697L320.548 43.9697V103.013Z" fill="#2F2E41"/>
<path d="M351.507 85.0099L350.109 68.0989H331.521L327.4 86.0157L351.507 85.0099Z" fill="#A0616A"/>
<path opacity="0.1" d="M351.507 85.0099L350.109 68.0989H331.521L327.4 86.0157L351.507 85.0099Z" fill="black"/>
<path d="M147.087 66.2243L147.412 44.4769L134.015 36.1169L119.446 53.955L147.087 66.2243Z" fill="#FFB6B6"/>
<path opacity="0.1" d="M147.087 66.2243L147.954 45.0188L134.015 36.1169L138.75 62.3598L147.087 66.2243Z" fill="black"/>
<path d="M337.888 73.4797C349.109 73.4797 358.206 64.3738 358.206 53.1411C358.206 41.9084 349.109 32.8025 337.888 32.8025C326.666 32.8025 317.569 41.9084 317.569 53.1411C317.569 64.3738 326.666 73.4797 337.888 73.4797Z" fill="#A0616A"/>
<path d="M332.763 31.7434C332.763 31.7434 332.763 23.3938 340.508 25.183C348.254 26.9722 350.637 29.9542 350.637 29.9542C350.637 29.9542 353.616 34.7254 358.382 35.3218C363.149 35.9182 367.319 49.6353 366.724 52.6173C366.128 55.5993 363.149 63.3525 367.319 66.9309C371.49 70.5092 377.448 75.8768 375.661 81.2444C373.873 86.612 368.511 100.329 368.511 100.329C368.511 100.329 383.467 102.518 382.245 111.86C382.245 111.86 375.065 106.293 365.532 106.293C355.999 106.293 357.191 88.9812 357.191 88.9812C357.191 88.9812 356.595 78.2624 354.807 75.2804C353.02 72.2984 355.403 55.5993 346.466 46.6533C337.529 37.7073 332.763 31.7434 332.763 31.7434V31.7434Z" fill="#2F2E41"/>
<path d="M335.146 29.9544C335.146 29.9544 323.826 32.3399 319.655 43.6715C315.484 55.0031 317.591 57.1116 317.591 57.1116C317.591 57.1116 316.669 63.935 311.608 66.3276C306.547 68.7202 310.718 78.859 310.718 78.859C310.718 78.859 309.526 88.9978 293.439 92.5762C277.353 96.1546 313.613 123.595 313.613 123.595C313.613 123.595 311.006 110.644 327.688 110.048C344.371 109.451 324.421 78.859 324.421 78.859L322.634 59.1779C322.634 59.1779 326.209 36.5147 336.933 33.5327C347.658 30.5507 335.146 29.9543 335.146 29.9543L335.146 29.9544Z" fill="#2F2E41"/>
<path d="M147.128 51.2443C160.288 51.2443 170.956 40.5659 170.956 27.3934C170.956 14.2209 160.288 3.54248 147.128 3.54248C133.969 3.54248 123.301 14.2209 123.301 27.3934C123.301 40.5659 133.969 51.2443 147.128 51.2443Z" fill="#FFB6B6"/>
<path d="M179.624 210.03L157.428 361.222H129.58L133.283 274.918L135.232 229.538L129.58 207.938C129.58 207.938 127.003 203.136 124.832 197.316C122.385 190.749 120.452 182.875 123.322 179.141C124.377 177.764 127.122 176.746 130.852 175.987C133.131 175.521 135.784 175.158 138.648 174.876C155.116 173.245 178.541 174.264 178.541 174.264L179.137 193.935L179.467 204.919L179.624 210.03Z" fill="#FA6F20"/>
<path d="M43.1846 365.929L57.3749 373.559L93.5307 322.402L72.5874 311.141L43.1846 365.929Z" fill="#FFB6B6"/>
<path d="M91.973 391.752C92.0151 392.735 90.9579 395.264 90.493 396.13C89.064 398.793 85.7494 399.791 83.0895 398.361L39.1459 374.728C37.3314 373.752 36.6506 371.489 37.6256 369.672L38.6085 367.841C38.6085 367.841 39.3889 361.168 47.5057 356.791C47.5057 356.791 50.2171 365.094 62.9946 361.244L67.8313 358.118L78.6023 380.648L87.7864 387.149C89.7957 388.571 91.8676 389.291 91.9729 391.752L91.973 391.752Z" fill="#2F2E41"/>
<path d="M179.467 204.919L167.687 228.563L133.283 274.918L76.6451 351.234L52.1157 338.044L119.354 224.721L124.594 203.012C124.594 203.012 124.594 200.665 124.832 197.316C125.298 190.689 126.695 180.127 130.852 175.987C131.415 175.423 132.027 174.979 132.693 174.681C133.943 174.117 136.022 174.253 138.648 174.876C149.616 177.499 170.085 188.765 179.137 193.935L179.467 204.919H179.467Z" fill="#FA6F20"/>
<path d="M349.994 391.914L336.144 391.913L329.556 338.439L349.997 338.44L349.994 391.914Z" fill="#A0616A"/>
<path d="M302.543 391.6C302.111 392.327 301.884 394.673 301.884 395.519C301.884 398.118 303.988 400.224 306.584 400.224H349.476C351.247 400.224 352.682 398.787 352.682 397.014V395.227C352.682 395.227 354.804 389.854 350.436 383.233C350.436 383.233 345.007 388.418 336.894 380.297L334.501 375.958L317.184 388.636L307.585 389.819C305.485 390.078 303.623 389.779 302.543 391.6H302.543H302.543Z" fill="#2F2E41"/>
<path d="M404.553 375.577L391.75 380.864L365.282 333.948L384.178 326.145L404.553 375.577Z" fill="#A0616A"/>
<path d="M360.57 393.404C360.448 394.241 361.132 396.497 361.454 397.278C362.445 399.68 365.193 400.824 367.593 399.833L407.241 383.456C408.878 382.78 409.658 380.903 408.982 379.264L408.301 377.612C408.301 377.612 408.215 371.836 401.654 367.383C401.654 367.383 398.611 374.248 388.017 369.839L384.152 366.742L372.975 385.074L364.552 389.832C362.71 390.873 360.875 391.308 360.57 393.404L360.57 393.404H360.57Z" fill="#2F2E41"/>
<path d="M356.348 208.48L350.696 230.08L352.201 265.131L354.697 323.348L354.767 324.99L355.049 331.536L356.348 361.763H328.5L316.103 277.318L306.304 210.571L307.333 176.583L307.387 174.806C307.387 174.806 357.193 172.638 362.606 179.683C368.02 186.728 356.348 208.48 356.348 208.48H356.348Z" fill="#673AB7"/>
<path d="M395.094 340.033L390.373 342.477L372.914 351.521L370.359 352.844L355.049 331.536L316.103 277.318L306.304 210.571L307.333 176.583C311.74 175.179 315.264 174.605 317.05 175.44C325.095 179.206 324.711 203.895 324.711 203.895L329.61 225.68L352.201 265.131L395.094 340.033Z" fill="#673AB7"/>
<path d="M294.403 346.698C294.044 345.601 291.328 346.084 291.067 345.102C290.808 344.124 293.414 343.304 295.413 340.547C295.773 340.05 298.045 336.917 297.173 335.599C295.522 333.101 284.033 339.322 281.275 335.831C280.67 335.065 280.421 333.75 278.617 331.302C277.9 330.329 277.44 329.858 276.89 329.872C276.11 329.892 275.831 330.869 274.605 332.639C272.766 335.293 272.102 334.96 270.891 337.134C269.991 338.749 269.885 339.78 269.236 339.841C268.318 339.927 267.939 337.917 266.818 337.839C265.674 337.76 264.529 339.746 263.961 341.297C262.896 344.209 263.555 346.435 263.702 348.653C263.86 351.063 263.487 354.591 260.871 359.12L236.193 398.478C241.493 390.454 256.537 368.575 262.598 360.55C264.348 358.233 266.228 355.907 269.123 355.469C271.909 355.048 275.299 356.428 280.032 356.348C280.584 356.338 282.122 356.293 282.497 355.477C282.806 354.802 282.038 354.215 282.317 353.581C282.692 352.731 284.378 353.096 286.676 352.531C288.296 352.132 289.397 351.474 290.343 350.908C290.628 350.737 294.88 348.16 294.403 346.698H294.403Z" fill="#FA6F20"/>
<path d="M229.766 355.888C229.124 355.747 228.578 357.221 228.021 357.066C227.467 356.911 227.816 355.394 227.041 353.616C226.902 353.296 226.021 351.276 225.123 351.324C223.422 351.414 223.157 358.854 220.65 359.202C220.1 359.278 219.383 359.021 217.663 359.2C216.978 359.272 216.615 359.362 216.463 359.637C216.248 360.026 216.646 360.445 217.16 361.558C217.931 363.227 217.576 363.457 218.293 364.679C218.825 365.587 219.3 365.937 219.142 366.273C218.92 366.749 217.825 366.355 217.463 366.884C217.094 367.423 217.737 368.558 218.334 369.285C219.455 370.649 220.736 370.967 221.866 371.535C223.094 372.152 224.716 373.353 226.182 375.946L238.359 399.426C235.954 394.507 229.567 380.803 227.381 375.51C226.75 373.981 226.152 372.386 226.773 370.838C227.37 369.348 229.025 368.08 230.351 365.732C230.506 365.458 230.927 364.689 230.635 364.27C230.393 363.923 229.884 364.131 229.654 363.811C229.345 363.381 230.01 362.658 230.396 361.367C230.668 360.456 230.663 359.725 230.659 359.097C230.658 358.907 230.62 356.075 229.766 355.888L229.766 355.888Z" fill="#FA6F20"/>
<path d="M241.915 361.616L242.297 358.079L242.532 357.857C243.618 356.829 244.298 355.741 244.553 354.62C244.593 354.442 244.625 354.262 244.657 354.079C244.784 353.351 244.942 352.447 245.64 351.508C246.031 350.985 247.065 349.802 248.132 350.215C248.42 350.323 248.614 350.51 248.749 350.708C248.783 350.674 248.818 350.639 248.855 350.602C249.316 350.154 249.638 349.99 249.948 349.832C250.187 349.71 250.433 349.585 250.85 349.251C251.033 349.105 251.179 348.973 251.303 348.862C251.677 348.528 252.156 348.136 252.812 348.291C253.507 348.482 253.745 349.145 253.903 349.585C254.186 350.368 254.273 350.907 254.33 351.265C254.351 351.395 254.375 351.542 254.393 351.59C254.545 351.974 256.455 352.073 257.174 352.115C258.789 352.203 260.187 352.279 260.523 353.386C260.764 354.178 260.261 355.042 258.986 356.022C258.588 356.326 258.191 356.537 257.845 356.694C258.058 356.896 258.227 357.17 258.238 357.543C258.261 358.426 257.356 359.104 255.548 359.561C255.098 359.676 254.494 359.828 253.703 359.789C253.33 359.771 253.004 359.714 252.726 359.66C252.684 359.819 252.608 359.984 252.471 360.141C252.069 360.602 251.419 360.719 250.536 360.459C249.562 360.187 248.793 359.818 248.114 359.493C247.521 359.21 247.009 358.968 246.58 358.902C245.782 358.791 245.037 359.284 244.147 359.94L241.915 361.616H241.915H241.915Z" fill="#FA6F20"/>
<path d="M248.285 341.468L244.77 341.995L244.495 341.824C243.227 341.033 242.003 340.651 240.855 340.688C240.673 340.694 240.491 340.71 240.305 340.725C239.57 340.787 238.657 340.863 237.572 340.425C236.967 340.179 235.562 339.478 235.691 338.34C235.722 338.034 235.853 337.798 236.01 337.617C235.968 337.593 235.927 337.568 235.881 337.542C235.331 337.21 235.091 336.939 234.859 336.679C234.681 336.478 234.498 336.272 234.07 335.953C233.882 335.813 233.717 335.704 233.579 335.613C233.161 335.335 232.661 334.971 232.645 334.297C232.652 333.576 233.233 333.177 233.617 332.912C234.303 332.44 234.802 332.219 235.133 332.072C235.254 332.019 235.39 331.959 235.431 331.929C235.764 331.684 235.375 329.81 235.233 329.104C234.908 327.517 234.627 326.145 235.611 325.538C236.316 325.104 237.278 325.371 238.549 326.358C238.944 326.665 239.248 326.997 239.488 327.292C239.628 327.035 239.85 326.801 240.208 326.696C241.056 326.45 241.94 327.154 242.841 328.789C243.066 329.195 243.366 329.742 243.529 330.517C243.606 330.883 243.634 331.213 243.653 331.496C243.816 331.496 243.995 331.528 244.181 331.621C244.729 331.894 245.007 332.493 244.98 333.414C244.964 334.426 244.802 335.264 244.661 336.004C244.538 336.651 244.434 337.207 244.479 337.639C244.573 338.441 245.239 339.036 246.099 339.732L248.285 341.468H248.285V341.468Z" fill="#FA6F20"/>
<path d="M248.759 330.901L249.142 327.363L249.376 327.141C250.462 326.114 251.142 325.025 251.397 323.905C251.437 323.727 251.469 323.546 251.501 323.363C251.628 322.636 251.786 321.731 252.484 320.792C252.875 320.269 253.91 319.087 254.976 319.5C255.264 319.608 255.458 319.794 255.593 319.992C255.627 319.958 255.662 319.924 255.699 319.887C256.16 319.438 256.482 319.274 256.793 319.116C257.031 318.995 257.277 318.869 257.694 318.536C257.877 318.389 258.024 318.257 258.147 318.147C258.521 317.812 259 317.421 259.656 317.576C260.351 317.766 260.589 318.43 260.747 318.869C261.03 319.653 261.117 320.192 261.174 320.549C261.195 320.68 261.219 320.827 261.237 320.875C261.389 321.259 263.299 321.358 264.018 321.399C265.633 321.487 267.031 321.563 267.367 322.67C267.608 323.462 267.106 324.326 265.83 325.306C265.433 325.611 265.035 325.821 264.689 325.979C264.902 326.18 265.072 326.454 265.082 326.827C265.105 327.711 264.2 328.388 262.392 328.845C261.943 328.96 261.338 329.112 260.547 329.074C260.175 329.055 259.848 328.998 259.57 328.945C259.529 329.104 259.453 329.268 259.315 329.425C258.913 329.886 258.263 330.003 257.381 329.744C256.407 329.472 255.637 329.102 254.958 328.778C254.365 328.495 253.853 328.253 253.424 328.187C252.626 328.075 251.882 328.568 250.991 329.225L248.759 330.901H248.759Z" fill="#FA6F20"/>
<path d="M237.36 398.679L236.738 398.065L236.749 397.191L236.738 398.065L235.874 397.973C235.878 397.892 235.873 397.702 235.866 397.405C235.833 395.777 235.73 390.825 236.419 383.215C236.9 377.903 237.704 372.511 238.808 367.186C239.915 361.852 241.063 357.884 241.985 354.694C242.681 352.289 243.383 350.007 244.069 347.784C245.899 341.846 247.627 336.237 248.696 329.839C248.936 328.411 249.433 325.438 248.415 321.929C247.825 319.894 246.813 317.978 245.408 316.237L246.768 315.137C248.318 317.061 249.437 319.183 250.093 321.443C251.222 325.333 250.68 328.573 250.42 330.129C249.331 336.64 247.586 342.304 245.738 348.299C245.055 350.513 244.355 352.785 243.662 355.181C242.749 358.341 241.611 362.275 240.519 367.54C239.427 372.801 238.633 378.127 238.158 383.372C237.478 390.886 237.58 395.765 237.613 397.368C237.631 398.224 237.634 398.403 237.36 398.679V398.679H237.36Z" fill="#FA6F20"/>
<path d="M241.677 318.25C241.607 318.234 241.537 318.217 241.467 318.196C240.032 317.794 238.882 316.624 238.046 314.719C237.655 313.824 237.563 312.881 237.379 311.001C237.35 310.712 237.222 309.245 237.379 307.302C237.481 306.032 237.617 305.522 237.963 305.121C238.346 304.675 238.863 304.419 239.409 304.291C239.423 304.123 239.478 303.959 239.587 303.803C240.036 303.156 240.788 303.422 241.196 303.56C241.401 303.634 241.657 303.728 241.945 303.776C242.398 303.855 242.668 303.775 243.077 303.657C243.469 303.543 243.956 303.401 244.628 303.413C245.956 303.432 246.939 304.029 247.263 304.225C248.97 305.252 249.559 306.89 250.241 308.786C250.376 309.166 250.826 310.54 250.931 312.309C251.006 313.586 250.839 314.108 250.648 314.482C250.256 315.25 249.657 315.606 248.17 316.355C246.616 317.14 245.837 317.533 245.197 317.734C243.71 318.202 242.776 318.495 241.677 318.25V318.25Z" fill="#FA6F20"/>
<path d="M441 400.364C441 400.715 440.716 401 440.365 401H0V399.728H440.365C440.716 399.728 441 400.013 441 400.364Z" fill="#673AB7"/>
<path d="M122.51 49.354L149.578 62.3598C149.578 62.3598 178.271 147.439 178.271 151.774C178.271 156.11 186.391 158.819 181.519 163.696C176.647 168.574 190.588 172.704 183.076 176.6C175.564 180.495 128.704 201.805 123.493 199.883C109.122 194.583 124.102 175.108 124.102 175.108C124.102 175.108 113.307 166.406 114.931 162.071C116.555 157.735 105.186 74.8236 105.186 74.8236L122.51 49.354V49.354Z" fill="#673AB7"/>
<path d="M145.673 33.1062L148.738 39.2416C148.738 39.2416 151.803 28.1978 156.706 25.7436C161.61 23.2895 162.223 19.6082 162.223 19.6082C162.223 19.6082 168.352 27.5843 172.643 25.7436C176.933 23.903 178.772 22.6759 173.868 15.3134C168.965 7.95085 170.191 11.6321 170.191 11.6321C170.191 11.6321 165.9 5.49667 166.513 7.3373C167.126 9.17793 162.836 2.42895 162.836 4.26958C162.836 6.11021 159.771 0.588312 159.771 2.42895C159.771 4.26958 146.899 -1.86586 148.738 0.588319C150.577 3.0425 137.705 -4.32003 131.576 5.49667C125.447 15.3134 116.948 13.498 119.971 19.6208C122.995 25.7436 121.769 42.3093 121.769 42.3093H130.222C130.222 42.3093 138.931 25.7436 145.673 33.1061V33.1062Z" fill="#2F2E41"/>
<path d="M326.064 85.12L326.56 84.9797L350.967 78.0752L370.456 104.629L357.463 159.903L362.336 182.121C362.336 182.121 322.816 171.825 307.116 180.496C307.116 180.496 306.033 175.554 307.116 173.148C308.199 170.741 309.823 160.727 308.199 156.251C306.575 151.775 311.447 130.64 311.447 130.64C311.447 130.64 309.823 116.551 316.861 109.506C323.898 102.461 326.064 85.12 326.064 85.12Z" fill="#FA6F20"/>
<path d="M303.897 184.929L218.133 142.265C217.706 142.053 217.334 141.76 217.025 141.396L203.643 125.609C202.756 124.562 202.563 123.084 203.154 121.845L228.246 69.1475C228.686 68.224 229.504 67.5422 230.491 67.2765C231.48 67.0114 232.529 67.191 233.372 67.7697L293.856 109.3C295.097 110.152 295.652 111.698 295.236 113.146L282.956 155.923C282.62 157.093 283.048 158.37 284.021 159.1L308.314 177.338C309.622 178.32 310.074 180.112 309.389 181.598L308.621 183.264C308.222 184.129 307.508 184.78 306.611 185.096C306.23 185.23 305.838 185.297 305.447 185.297C304.916 185.297 304.388 185.174 303.897 184.929V184.929Z" fill="#673AB7"/>
<path d="M303.213 174.545L279.339 154.663C279.133 154.489 278.97 154.278 278.857 154.045C278.64 153.606 278.597 153.08 278.759 152.598L292.364 112.752C292.716 111.722 292.337 110.573 291.438 109.955L234.757 71.1116C234.178 70.7106 233.452 70.586 232.77 70.7648C232.083 70.9436 231.514 71.4097 231.2 72.0437L207.304 120.615C206.941 121.346 206.968 122.186 207.369 122.885C207.418 122.983 207.477 123.075 207.548 123.162L219.566 139.04C219.799 139.343 220.102 139.592 220.443 139.76L300.598 178.61C300.934 178.772 301.296 178.854 301.659 178.854C302.287 178.854 302.915 178.61 303.381 178.138C303.435 178.079 303.489 178.024 303.543 177.959C303.922 177.499 304.117 176.908 304.09 176.307C304.057 175.624 303.738 174.984 303.213 174.545Z" fill="#F2F2F2"/>
<path d="M216.707 117.634C216.905 117.634 217.096 117.525 217.191 117.336L236.62 78.6973C236.755 78.4298 236.647 78.1041 236.38 77.9697C236.113 77.8344 235.788 77.9427 235.654 78.2099L216.224 116.849C216.089 117.116 216.197 117.442 216.464 117.576C216.542 117.616 216.625 117.634 216.707 117.634Z" fill="#673AB7"/>
<path d="M226.993 124.137C227.191 124.137 227.382 124.028 227.477 123.839L246.907 85.2001C247.041 84.9326 246.934 84.6068 246.667 84.4724C246.399 84.3369 246.074 84.4457 245.94 84.7127L226.51 123.352C226.376 123.619 226.483 123.945 226.75 124.079C226.828 124.119 226.911 124.137 226.993 124.137Z" fill="#673AB7"/>
<path d="M235.655 129.556C235.853 129.556 236.044 129.447 236.139 129.258L255.569 90.6192C255.703 90.3517 255.596 90.026 255.329 89.8915C255.061 89.7563 254.736 89.8645 254.602 90.1318L235.172 128.771C235.038 129.038 235.145 129.364 235.412 129.498C235.491 129.538 235.574 129.556 235.655 129.556V129.556Z" fill="#673AB7"/>
<path d="M204.99 124.322C211.708 122.336 218.177 124.195 219.439 128.475C220.702 132.754 216.279 137.833 209.559 139.819C206.885 140.65 204.052 140.827 201.295 140.337L172.726 148.394L169.234 134.893L197.769 128.383C199.818 126.472 202.293 125.079 204.99 124.322Z" fill="#FFB6B6"/>
<path d="M154.457 76.4752L149.979 130.098L190.089 130.53L197.874 142.528C197.874 142.528 149.258 170.706 134.66 156.308C120.062 141.91 113.567 81.3232 126.546 70.9524C139.525 60.5817 154.457 76.4752 154.457 76.4752Z" fill="#673AB7"/>
<path d="M285.851 173.294C278.866 172.768 273.476 168.733 273.811 164.283C274.147 159.834 280.081 156.655 287.068 157.182C289.862 157.355 292.575 158.195 294.978 159.631L324.546 162.237L323.029 176.1L294.041 172.06C291.449 173.12 288.64 173.543 285.851 173.294Z" fill="#A0616A"/>
<path d="M372.323 108.171L367.492 168.579C367.492 168.579 365.97 181.597 345.716 180.781C325.462 179.965 298.559 173.565 298.559 173.565L299.531 159.468L322.17 160.699C322.17 160.699 332.54 157.582 334.719 159.191C336.897 160.8 336.047 162.866 337.975 160.249C339.904 157.633 338.784 156.133 340.708 158.227C342.632 160.321 343.203 164.11 344.031 159.334C344.86 154.559 346.924 155.41 346.924 155.41L345.713 111.415C345.713 111.415 350.634 90.133 362.054 96.5462C373.473 102.959 372.323 108.171 372.323 108.171Z" fill="#FA6F20"/>
</g>
<defs>
<clipPath id="clip0_843_2748">
<rect width="441" height="401" fill="white"/>
</clipPath>
</defs>
</svg>
