<svg width="734" height="962" viewBox="0 0 734 962" fill="none" xmlns="http://www.w3.org/2000/svg">
<path d="M374.895 707.71C347.661 642.016 306.092 654.729 239.862 644.724C120.868 626.702 53.5014 553.869 30.4356 439.04C-19.9621 185.64 251.634 -31.7404 502.385 53.025C547.363 65.9145 589.808 85.8822 627.996 112.116C782.894 234.686 666.336 366.92 631.981 503.753C627.534 520.826 634.13 577.988 628.981 592.471C598.472 680.293 458.755 719.895 371.376 751.235C364.639 753.816 346.201 780.183 361.206 780.509C486.435 787.563 621.331 756.957 702.575 659.701C706.75 654.527 711.571 645.531 708.244 639.3L701.979 624.187C701.582 623.547 701.019 623.018 700.345 622.65C699.671 622.282 698.91 622.087 698.135 622.086L678.385 621.076C667.869 620.817 659.382 638.009 660.654 646.457C671.148 713.92 717.962 861.824 596.541 885.478C589.163 888.306 581.453 900.196 581.316 907.04C581.179 913.883 448.58 803.856 434.134 767.216C430.043 757.347 409.106 782.169 413.453 792.655C445.161 869.145 498.801 944.736 585.543 961.178C594.838 962.977 603.197 945.477 603.462 938.942C604.078 909.04 673.052 879.034 689.184 850.692C698.639 831.036 704.232 809.867 705.68 788.255C741.663 532.492 435.844 834.114 419.011 759.43C419.446 770.343 662.992 623.401 662.992 623.401C662.992 623.401 680.586 604.863 674.247 597.642C613.099 526.358 743.585 334.458 732.74 241.038C729.262 208.748 718.788 177.517 701.993 149.357C685.197 121.196 662.451 96.7305 635.222 77.5366C507.538 -14.3577 326.85 -28.7532 197.392 61.6024C67.9336 151.958 -5.66304 236.276 1.12917 389.866C1.00658 465.234 25.4951 538.737 71.1408 600.008C133.758 675.733 323.912 660.052 354.406 732.718C358.498 742.588 379.435 717.766 375.087 707.279L374.895 707.71Z" fill="url(#paint0_linear_1120_1218)" fill-opacity="0.2"/>
<defs>
<linearGradient id="paint0_linear_1120_1218" x1="-118" y1="172.135" x2="592.02" y2="-122.196" gradientUnits="userSpaceOnUse">
<stop stop-color="#FF995D"/>
<stop offset="0.142857" stop-color="#FB795C"/>
<stop offset="0.285714" stop-color="#F35861"/>
<stop offset="0.428571" stop-color="#E5346C"/>
<stop offset="0.571429" stop-color="#CE007A"/>
<stop offset="0.714286" stop-color="#AF0089"/>
<stop offset="0.857143" stop-color="#830098"/>
<stop offset="1" stop-color="#3D14A4"/>
</linearGradient>
</defs>
</svg>
