<svg width="523" height="409" viewBox="0 0 523 409" fill="none" xmlns="http://www.w3.org/2000/svg">
    <path
        d="M497.221 408.934C500.792 408.934 503.688 406.038 503.688 402.467C503.688 398.895 500.792 396 497.221 396C493.649 396 490.754 398.895 490.754 402.467C490.754 406.038 493.649 408.934 497.221 408.934Z"
        fill="url(#paint0_linear_443_2)" />
    <path
        d="M458.303 289.371C475.122 273.043 475.122 246.569 458.303 230.24C441.484 213.911 414.215 213.911 397.397 230.24C380.578 246.569 380.578 273.043 397.397 289.371C414.215 305.7 441.484 305.7 458.303 289.371Z"
        fill="#FA6F20" />
    <path
        d="M427.609 263.652C435.546 261.946 440.556 254.316 438.799 246.611C437.042 238.905 429.183 234.041 421.246 235.747C413.309 237.452 408.299 245.082 410.056 252.788C411.813 260.493 419.672 265.357 427.609 263.652Z"
        fill="white" />
    <path
        d="M419.526 250.659C422.172 250.091 423.842 247.548 423.257 244.979C422.671 242.411 420.051 240.789 417.406 241.358C414.76 241.926 413.09 244.469 413.676 247.038C414.261 249.607 416.881 251.228 419.526 250.659Z"
        fill="#3F3D56" />
    <path
        d="M426.148 231.538C408.534 231.506 396.17 228.452 396.199 212.96C396.229 197.468 410.531 184.934 428.144 184.966C445.758 184.998 460.012 197.582 459.982 213.074C459.953 228.567 443.761 231.57 426.148 231.538Z"
        fill="#673AB7" />
    <path
        d="M495.351 266.795C490.299 283.811 475.548 295.722 460.16 305.84C458.012 307.253 455.862 308.634 453.712 309.982C453.698 309.988 453.683 310.001 453.668 310.008C453.565 310.072 453.461 310.137 453.365 310.202C452.921 310.479 452.477 310.757 452.037 311.032L452.279 311.137C452.279 311.137 452.516 311.26 452.256 311.157C452.179 311.126 452.098 311.097 452.021 311.066C443.082 307.566 433.984 303.807 427.133 297.25C420.027 290.441 415.873 279.761 419.722 270.816C420.227 269.644 420.866 268.531 421.626 267.496C421.939 267.063 422.275 266.648 422.625 266.24C424.747 263.725 427.522 261.804 430.663 260.675C433.803 259.546 437.197 259.25 440.495 259.816C443.793 260.383 446.876 261.792 449.427 263.898C451.978 266.005 453.905 268.734 455.01 271.803C456.141 261.584 447.462 253.024 439.109 246.708C430.753 240.395 421.258 233.521 419.642 223.358C418.74 217.704 420.765 212.225 424.455 207.826C424.569 207.692 424.683 207.559 424.8 207.429C429.291 202.306 435.607 199.016 442.488 198.217C455.301 196.924 467.747 203.508 477.055 212.158C492.037 226.074 501.095 247.448 495.351 266.795Z"
        fill="url(#paint1_linear_443_2)" />
    <path
        d="M471.268 244.539C473.727 248.253 475.615 252.296 476.872 256.54C477.935 260.332 478.409 264.258 478.276 268.187C477.933 276.271 475.596 284.157 471.46 291.181C468.345 296.51 464.548 301.436 460.161 305.84C458.012 307.253 455.863 308.634 453.713 309.982C453.698 309.988 453.683 310.001 453.669 310.008C453.565 310.072 453.462 310.137 453.365 310.202C452.921 310.479 452.478 310.757 452.038 311.032C452.038 311.032 452.517 311.26 452.257 311.157C452.18 311.126 452.099 311.097 452.022 311.066C452.823 304.689 452.038 298.218 449.733 292.196C447.427 286.173 443.669 280.775 438.773 276.454C433.864 272.198 427.989 269.129 421.627 267.496C421.939 267.063 422.275 266.648 422.625 266.24C425.083 266.909 427.474 267.788 429.772 268.866C437.986 272.695 444.712 278.991 448.954 286.82C452.76 293.93 454.399 301.946 453.676 309.928C454.043 309.605 454.411 309.275 454.768 308.948C461.561 302.799 467.594 295.742 471.677 287.597C475.22 280.699 476.961 273.062 476.747 265.357C476.414 256.956 472.966 249.174 467.974 242.4C462.503 235.173 456.04 228.706 448.764 223.178C441.431 217.477 433.408 212.667 424.872 208.858C424.679 208.771 424.529 208.615 424.451 208.423C424.373 208.231 424.375 208.017 424.455 207.826C424.512 207.655 424.636 207.512 424.801 207.429C424.886 207.394 424.978 207.377 425.07 207.381C425.162 207.385 425.252 207.409 425.333 207.451C426.387 207.922 427.434 208.4 428.472 208.898C437.119 213.047 445.202 218.223 452.535 224.308C459.617 230.17 466.285 236.868 471.268 244.539Z"
        fill="white" />
    <path
        d="M73.7137 313.954C79.7353 313.954 84.6168 312.176 84.6168 309.984C84.6168 307.792 79.7353 306.015 73.7137 306.015C67.692 306.015 62.8105 307.792 62.8105 309.984C62.8105 312.176 67.692 313.954 73.7137 313.954Z"
        fill="#FA6F20" />
    <path
        d="M99.8817 313.424C105.903 313.424 110.785 311.647 110.785 309.455C110.785 307.263 105.903 305.485 99.8817 305.485C93.86 305.485 88.9785 307.263 88.9785 309.455C88.9785 311.647 93.86 313.424 99.8817 313.424Z"
        fill="#FA6F20" />
    <path
        d="M134.619 246.704C144.922 240.938 151.763 233.717 149.899 230.577C148.034 227.437 138.17 229.566 127.867 235.332C117.563 241.099 110.723 248.319 112.587 251.459C114.452 254.6 124.316 252.471 134.619 246.704Z"
        fill="#FA6F20" />
    <path
        d="M124.948 260.844C128.758 238.05 112.814 216.573 89.3359 212.874C65.8576 209.175 43.736 224.655 39.926 247.449C36.116 270.243 52.0603 291.72 75.5386 295.419C99.0169 299.118 121.138 283.638 124.948 260.844Z"
        fill="#FA6F20" />
    <path d="M75.8943 286.961H62.8105V309.72H75.8943V286.961Z" fill="#FA6F20" />
    <path d="M102.062 286.961H88.9785V309.72H102.062V286.961Z" fill="#FA6F20" />
    <path
        d="M83.5278 257.852C91.657 257.852 98.247 251.454 98.247 243.562C98.247 235.669 91.657 229.271 83.5278 229.271C75.3986 229.271 68.8086 235.669 68.8086 243.562C68.8086 251.454 75.3986 257.852 83.5278 257.852Z"
        fill="white" />
    <path
        d="M83.5275 248.324C86.2373 248.324 88.4339 246.192 88.4339 243.561C88.4339 240.93 86.2373 238.797 83.5275 238.797C80.8178 238.797 78.6211 240.93 78.6211 243.561C78.6211 246.192 80.8178 248.324 83.5275 248.324Z"
        fill="#3F3D56" />
    <path
        d="M40.6601 215.262C37.1827 200.142 48.2988 184.864 65.4887 181.138C82.6787 177.411 99.433 186.648 102.91 201.767C106.388 216.887 94.9955 222.464 77.8056 226.19C60.6156 229.917 44.1376 230.382 40.6601 215.262Z"
        fill="#673AB7" />
    <path
        d="M53.3836 243.705C54.9835 240.43 47.5696 233.764 36.8242 228.816C26.0788 223.868 16.071 222.512 14.4711 225.787C12.8712 229.062 20.285 235.728 31.0305 240.676C41.7759 245.624 51.7837 246.98 53.3836 243.705Z"
        fill="#FA6F20" />
    <path
        d="M61.2812 269.231C61.2812 273.323 72.1345 281.404 84.1778 281.404C96.221 281.404 107.513 269.883 107.513 265.79C107.513 261.698 96.221 266.584 84.1778 266.584C72.1345 266.584 61.2812 265.138 61.2812 269.231Z"
        fill="white" />
    <path
        d="M232.608 313.954C238.63 313.954 243.511 312.176 243.511 309.984C243.511 307.792 238.63 306.015 232.608 306.015C226.587 306.015 221.705 307.792 221.705 309.984C221.705 312.176 226.587 313.954 232.608 313.954Z"
        fill="#FA6F20" />
    <path
        d="M206.442 313.424C212.464 313.424 217.345 311.647 217.345 309.455C217.345 307.263 212.464 305.485 206.442 305.485C200.421 305.485 195.539 307.263 195.539 309.455C195.539 311.647 200.421 313.424 206.442 313.424Z"
        fill="#FA6F20" />
    <path
        d="M193.735 251.46C195.599 248.32 188.758 241.099 178.455 235.333C168.152 229.566 158.288 227.437 156.423 230.577C154.558 233.718 161.399 240.938 171.703 246.704C182.006 252.471 191.87 254.6 193.735 251.46Z"
        fill="#FA6F20" />
    <path
        d="M223.888 295.959C247.673 295.959 266.955 277.239 266.955 254.147C266.955 231.054 247.673 212.334 223.888 212.334C200.102 212.334 180.82 231.054 180.82 254.147C180.82 277.239 200.102 295.959 223.888 295.959Z"
        fill="#FA6F20" />
    <path d="M243.511 286.961H230.428V309.72H243.511V286.961Z" fill="#FA6F20" />
    <path d="M217.345 286.961H204.262V309.72H217.345V286.961Z" fill="#FA6F20" />
    <path
        d="M213.797 257.852C221.927 257.852 228.517 251.454 228.517 243.562C228.517 235.669 221.927 229.271 213.797 229.271C205.668 229.271 199.078 235.669 199.078 243.562C199.078 251.454 205.668 257.852 213.797 257.852Z"
        fill="white" />
    <path
        d="M210.249 244.975C212.171 243.11 212.184 240.096 210.276 238.243C208.369 236.39 205.265 236.399 203.342 238.264C201.42 240.128 201.407 243.143 203.315 244.996C205.222 246.849 208.326 246.84 210.249 244.975Z"
        fill="#3F3D56" />
    <path
        d="M228.517 226.19C211.327 222.464 199.935 216.887 203.412 201.767C206.89 186.648 223.644 177.411 240.834 181.138C258.024 184.864 269.14 200.142 265.663 215.262C262.185 230.382 245.707 229.917 228.517 226.19Z"
        fill="#673AB7" />
    <path
        d="M268.921 286.018C272.53 285.088 272.98 275.287 269.927 264.128C266.874 252.969 261.474 244.677 257.866 245.607C254.257 246.538 253.807 256.338 256.86 267.498C259.913 278.657 265.313 286.949 268.921 286.018Z"
        fill="#FA6F20" />
    <path
        d="M214.129 266.585C206.222 266.585 198.809 261.699 198.809 265.791C198.809 269.883 206.222 281.404 214.129 281.404C222.035 281.404 229.161 273.323 229.161 269.231C229.161 265.139 222.035 266.585 214.129 266.585Z"
        fill="white" />
    <path
        d="M158.471 184.82H154.647C151.22 184.816 147.936 183.493 145.513 181.141C143.09 178.789 141.728 175.6 141.724 172.273V169.156C141.724 161.435 143.231 154.969 146.203 149.94C149.805 144.09 154.007 138.609 158.745 133.58C161.89 130.509 164.744 127.169 167.273 123.601C169.087 120.828 170.023 117.6 169.966 114.317C169.966 106.571 164.768 102.806 154.075 102.806C148.144 102.871 142.25 103.73 136.56 105.358C134.366 105.966 132.056 106.072 129.813 105.666C127.57 105.26 125.454 104.355 123.632 103.02C121.811 101.686 120.333 99.9595 119.315 97.9766C118.298 95.9936 117.768 93.8085 117.768 91.593V85.2825C117.755 82.5659 118.555 79.904 120.069 77.6197C121.583 75.3353 123.748 73.5265 126.3 72.4124C136.349 68.249 147.186 66.1792 158.11 66.337C169.554 66.337 179.885 68.2033 188.817 71.8834C197.765 75.572 204.834 80.7733 209.828 87.3432C214.807 93.8665 217.454 101.791 217.364 109.91C217.364 118.628 214.913 126.222 210.078 132.479C205.295 138.673 198.44 145.454 189.702 152.634C185.098 156.352 180.735 160.342 176.638 164.582C173.992 167.349 172.122 170.729 171.207 174.399C170.697 177.318 169.138 179.967 166.806 181.875C164.474 183.783 161.521 184.826 158.471 184.82Z"
        fill="#673AB7" />
    <path
        d="M156.346 243.821H155.842C149.492 243.817 143.404 241.365 138.916 237.005C134.428 232.644 131.906 226.732 131.906 220.568C131.906 214.403 134.428 208.491 138.916 204.13C143.404 199.77 149.492 197.318 155.842 197.314H156.346C159.493 197.312 162.609 197.912 165.517 199.08C168.424 200.248 171.067 201.96 173.292 204.12C175.518 206.279 177.284 208.843 178.488 211.666C179.693 214.488 180.313 217.513 180.313 220.568C180.313 223.623 179.693 226.648 178.488 229.47C177.284 232.292 175.518 234.856 173.292 237.015C171.067 239.175 168.424 240.887 165.517 242.055C162.609 243.223 159.493 243.823 156.346 243.821Z"
        fill="#673AB7" />
    <path
        d="M312 314.392H1C0.734784 314.392 0.480444 314.29 0.292908 314.108C0.105371 313.925 0 313.679 0 313.421C0 313.164 0.105371 312.917 0.292908 312.735C0.480444 312.552 0.734784 312.45 1 312.45H312C312.265 312.45 312.52 312.552 312.707 312.735C312.895 312.917 313 313.164 313 313.421C313 313.679 312.895 313.925 312.707 314.108C312.52 314.29 312.265 314.392 312 314.392Z"
        fill="#673AB7" />
    <path
        d="M522 314.392H356C355.735 314.392 355.48 314.29 355.293 314.108C355.105 313.925 355 313.679 355 313.421C355 313.164 355.105 312.917 355.293 312.735C355.48 312.552 355.735 312.45 356 312.45H522C522.265 312.45 522.52 312.552 522.707 312.735C522.895 312.917 523 313.164 523 313.421C523 313.679 522.895 313.925 522.707 314.108C522.52 314.29 522.265 314.392 522 314.392Z"
        fill="#673AB7" />
    <path
        d="M418.97 286.033C430.86 285.807 440.44 282.687 440.367 279.063C440.294 275.439 430.596 272.684 418.705 272.91C406.815 273.135 397.235 276.256 397.308 279.88C397.381 283.504 407.079 286.259 418.97 286.033Z"
        fill="#FA6F20" />
    <path
        d="M408.16 132.841H382.16C380.835 132.84 379.564 132.328 378.626 131.418C377.689 130.508 377.162 129.274 377.16 127.987V102.745C377.162 101.458 377.689 100.224 378.626 99.3141C379.564 98.404 380.835 97.8921 382.16 97.8906H408.16C409.486 97.8921 410.757 98.404 411.694 99.3141C412.631 100.224 413.159 101.458 413.16 102.745V127.987C413.159 129.274 412.631 130.508 411.694 131.418C410.757 132.328 409.486 132.84 408.16 132.841ZM382.16 99.8323C381.365 99.8332 380.602 100.14 380.04 100.686C379.477 101.232 379.161 101.973 379.16 102.745V127.987C379.161 128.759 379.477 129.5 380.04 130.046C380.602 130.592 381.365 130.899 382.16 130.9H408.16C408.956 130.899 409.718 130.592 410.281 130.046C410.843 129.5 411.159 128.759 411.16 127.987V102.745C411.159 101.973 410.843 101.232 410.281 100.686C409.718 100.14 408.956 99.8332 408.16 99.8323H382.16Z"
        fill="url(#paint2_linear_443_2)" />
    <path
        d="M420.16 116.337H394.16C392.835 116.335 391.564 115.823 390.626 114.913C389.689 114.003 389.162 112.769 389.16 111.482V86.24C389.162 84.953 389.689 83.7192 390.626 82.8092C391.564 81.8991 392.835 81.3872 394.16 81.3857H420.16C421.486 81.3872 422.757 81.8991 423.694 82.8092C424.631 83.7192 425.159 84.953 425.16 86.24V111.482C425.159 112.769 424.631 114.003 423.694 114.913C422.757 115.823 421.486 116.335 420.16 116.337ZM394.16 83.3275C393.365 83.3283 392.602 83.6354 392.04 84.1815C391.477 84.7275 391.161 85.4678 391.16 86.24V111.482C391.161 112.255 391.477 112.995 392.04 113.541C392.602 114.087 393.365 114.394 394.16 114.395H420.16C420.956 114.394 421.718 114.087 422.281 113.541C422.843 112.995 423.159 112.255 423.16 111.482V86.24C423.159 85.4678 422.843 84.7275 422.281 84.1815C421.718 83.6354 420.956 83.3283 420.16 83.3275H394.16Z"
        fill="url(#paint3_linear_443_2)" />
    <path
        d="M215.16 35.7555H189.16C187.835 35.7541 186.564 35.2422 185.626 34.3321C184.689 33.4221 184.162 32.1882 184.16 30.9013V5.65897C184.162 4.37199 184.689 3.13815 185.626 2.22812C186.564 1.31808 187.835 0.80616 189.16 0.804688H215.16C216.486 0.80616 217.757 1.31808 218.694 2.22812C219.631 3.13815 220.159 4.37199 220.16 5.65897V30.9013C220.159 32.1882 219.631 33.4221 218.694 34.3321C217.757 35.2422 216.486 35.7541 215.16 35.7555ZM189.16 2.7464C188.365 2.74724 187.602 3.05437 187.04 3.60041C186.477 4.14644 186.161 4.88677 186.16 5.65897V30.9013C186.161 31.6735 186.477 32.4138 187.04 32.9598C187.602 33.5059 188.365 33.813 189.16 33.8138H215.16C215.956 33.813 216.718 33.5059 217.281 32.9598C217.843 32.4138 218.159 31.6735 218.16 30.9013V5.65897C218.159 4.88677 217.843 4.14644 217.281 3.60041C216.718 3.05437 215.956 2.74724 215.16 2.7464H189.16Z"
        fill="url(#paint4_linear_443_2)" />
    <path
        d="M321.221 172.294C324.792 172.294 327.688 169.483 327.688 166.016C327.688 162.548 324.792 159.737 321.221 159.737C317.649 159.737 314.754 162.548 314.754 166.016C314.754 169.483 317.649 172.294 321.221 172.294Z"
        fill="url(#paint5_linear_443_2)" />
    <path
        d="M61.2208 149.964C64.7924 149.964 67.6877 147.153 67.6877 143.686C67.6877 140.218 64.7924 137.407 61.2208 137.407C57.6492 137.407 54.7539 140.218 54.7539 143.686C54.7539 147.153 57.6492 149.964 61.2208 149.964Z"
        fill="url(#paint6_linear_443_2)" />
    <defs>
        <linearGradient id="paint0_linear_443_2" x1="490.754" y1="396" x2="503.688" y2="396"
            gradientUnits="userSpaceOnUse">
            <stop stop-color="#FF995D" />
            <stop offset="0.142857" stop-color="#FB795C" />
            <stop offset="0.285714" stop-color="#F35861" />
            <stop offset="0.428571" stop-color="#E5346C" />
            <stop offset="0.571429" stop-color="#CE007A" />
            <stop offset="0.714286" stop-color="#AF0089" />
            <stop offset="0.857143" stop-color="#830098" />
            <stop offset="1" stop-color="#3D14A4" />
        </linearGradient>
        <linearGradient id="paint1_linear_443_2" x1="418.254" y1="198.054" x2="497.094" y2="198.054"
            gradientUnits="userSpaceOnUse">
            <stop stop-color="#FF995D" />
            <stop offset="0.142857" stop-color="#FB795C" />
            <stop offset="0.285714" stop-color="#F35861" />
            <stop offset="0.428571" stop-color="#E5346C" />
            <stop offset="0.571429" stop-color="#CE007A" />
            <stop offset="0.714286" stop-color="#AF0089" />
            <stop offset="0.857143" stop-color="#830098" />
            <stop offset="1" stop-color="#3D14A4" />
        </linearGradient>
        <linearGradient id="paint2_linear_443_2" x1="377.16" y1="97.8906" x2="413.16" y2="97.8906"
            gradientUnits="userSpaceOnUse">
            <stop stop-color="#FF995D" />
            <stop offset="0.142857" stop-color="#FB795C" />
            <stop offset="0.285714" stop-color="#F35861" />
            <stop offset="0.428571" stop-color="#E5346C" />
            <stop offset="0.571429" stop-color="#CE007A" />
            <stop offset="0.714286" stop-color="#AF0089" />
            <stop offset="0.857143" stop-color="#830098" />
            <stop offset="1" stop-color="#3D14A4" />
        </linearGradient>
        <linearGradient id="paint3_linear_443_2" x1="389.16" y1="81.3857" x2="425.16" y2="81.3857"
            gradientUnits="userSpaceOnUse">
            <stop stop-color="#FF995D" />
            <stop offset="0.142857" stop-color="#FB795C" />
            <stop offset="0.285714" stop-color="#F35861" />
            <stop offset="0.428571" stop-color="#E5346C" />
            <stop offset="0.571429" stop-color="#CE007A" />
            <stop offset="0.714286" stop-color="#AF0089" />
            <stop offset="0.857143" stop-color="#830098" />
            <stop offset="1" stop-color="#3D14A4" />
        </linearGradient>
        <linearGradient id="paint4_linear_443_2" x1="184.16" y1="0.804688" x2="220.16" y2="0.804688"
            gradientUnits="userSpaceOnUse">
            <stop stop-color="#FF995D" />
            <stop offset="0.142857" stop-color="#FB795C" />
            <stop offset="0.285714" stop-color="#F35861" />
            <stop offset="0.428571" stop-color="#E5346C" />
            <stop offset="0.571429" stop-color="#CE007A" />
            <stop offset="0.714286" stop-color="#AF0089" />
            <stop offset="0.857143" stop-color="#830098" />
            <stop offset="1" stop-color="#3D14A4" />
        </linearGradient>
        <linearGradient id="paint5_linear_443_2" x1="314.754" y1="159.737" x2="327.688" y2="159.737"
            gradientUnits="userSpaceOnUse">
            <stop stop-color="#FF995D" />
            <stop offset="0.142857" stop-color="#FB795C" />
            <stop offset="0.285714" stop-color="#F35861" />
            <stop offset="0.428571" stop-color="#E5346C" />
            <stop offset="0.571429" stop-color="#CE007A" />
            <stop offset="0.714286" stop-color="#AF0089" />
            <stop offset="0.857143" stop-color="#830098" />
            <stop offset="1" stop-color="#3D14A4" />
        </linearGradient>
        <linearGradient id="paint6_linear_443_2" x1="54.7539" y1="137.407" x2="67.6877" y2="137.407"
            gradientUnits="userSpaceOnUse">
            <stop stop-color="#FF995D" />
            <stop offset="0.142857" stop-color="#FB795C" />
            <stop offset="0.285714" stop-color="#F35861" />
            <stop offset="0.428571" stop-color="#E5346C" />
            <stop offset="0.571429" stop-color="#CE007A" />
            <stop offset="0.714286" stop-color="#AF0089" />
            <stop offset="0.857143" stop-color="#830098" />
            <stop offset="1" stop-color="#3D14A4" />
        </linearGradient>
    </defs>
</svg>