<svg width="293" height="304" viewBox="0 0 293 304" fill="none" xmlns="http://www.w3.org/2000/svg">
<g clip-path="url(#clip0_1181_266)">
<path d="M29.0459 201.652L34.6381 204.352L47.7121 184.065L39.4579 180.081L29.0459 201.652Z" fill="#FFB6B6"/>
<path d="M26.0322 207.391L43.2297 215.693L43.3347 215.475C44.1916 213.7 44.3082 211.657 43.6589 209.796C43.0096 207.934 41.6476 206.407 39.8725 205.55L39.872 205.55L37.8812 201.65L30.8696 201.204L29.3684 200.48L26.0322 207.391Z" fill="#2F2E41"/>
<path d="M70.6742 209.214L76.8836 209.214L79.838 185.261L70.6729 185.261L70.6742 209.214Z" fill="#FFB6B6"/>
<path d="M70.4554 215.693L89.5517 215.692V215.45C89.5516 213.479 88.7684 211.589 87.3745 210.195C85.9806 208.801 84.0901 208.018 82.1189 208.018H82.1184L78.6302 205.371L72.1221 208.018L70.4551 208.018L70.4554 215.693Z" fill="#2F2E41"/>
<path d="M76.8285 98.1246L83.9445 147.197L84.5491 158.227L80.8173 192.646L82.3321 195.981L78.0997 198.591H69.4872L69.0302 162.233L62.572 131.782L61.573 166.296L60.1903 168.963C55.0401 180.648 48.1023 184.474 43.1975 193.208L34.5847 188.543L34.7653 185.064C33.0351 184.188 37.3631 181.627 37.779 179.733L38.5323 176.342L43.5564 165.934L43.7481 162.269L42.3731 137.342L43.0201 103.774L54.3174 95.1355L76.8285 98.1246Z" fill="#7C5157"/>
<path d="M66.0059 28.5555C72.1857 28.5555 77.1954 23.5458 77.1954 17.366C77.1954 11.1862 72.1857 6.17651 66.0059 6.17651C59.8261 6.17651 54.8164 11.1862 54.8164 17.366C54.8164 23.5458 59.8261 28.5555 66.0059 28.5555Z" fill="#FFB6B6"/>
<path d="M67.5453 107.181C52.794 107.181 41.7284 101.625 41.577 101.548L41.4459 101.48L41.4862 101.339C41.8822 99.9518 42.2574 97.6252 41.5786 97.2859C41.5055 97.2579 41.4407 97.2119 41.3901 97.1523C41.3395 97.0926 41.3049 97.0211 41.2893 96.9444C41.2504 96.6656 41.5295 96.4108 41.9159 96.0579C42.6658 95.373 43.693 94.435 43.0906 92.9292C42.0285 90.2744 45.0148 76.6697 45.2079 75.7976L43.9324 54.1118C43.7 49.9743 44.8993 45.8828 47.3285 42.5254C49.7578 39.168 53.269 36.7494 57.2717 35.6761L57.3001 35.6686L57.3294 35.6705C57.7441 35.6939 58.1832 34.2854 58.5164 33.2547C59.0084 31.7313 59.3333 30.7952 59.8875 30.835C64.1783 31.1116 67.0375 31.2927 68.9427 31.4109C72.5552 31.6354 73.1881 36.0292 73.2659 36.7307C77.1544 39.1 80.1951 42.6369 81.9545 46.8367C83.7139 51.0365 84.102 55.6847 83.0634 60.1181L81.2629 67.8601L79.6719 71.58L80.1962 78.9189C82.6641 80.971 81.9569 85.1691 81.8163 85.8784C84.1679 88.3111 82.7238 91.1741 82.3736 91.7804C82.9755 92.5159 83.3851 93.3895 83.5656 94.3226C83.7461 95.2557 83.6918 96.219 83.4076 97.1259L85.5734 104.165L85.4101 104.222C79.6639 106.205 73.6243 107.206 67.5453 107.181Z" fill="#FA6F20"/>
<path d="M136.869 33.7336C136.479 33.23 135.984 32.8179 135.417 32.5263C134.851 32.2348 134.228 32.071 133.591 32.0465C132.955 32.0219 132.321 32.1371 131.734 32.3841C131.147 32.6311 130.621 33.0038 130.194 33.4759L94.8125 33.6684L84.7599 38.5249L83.4561 44.0909L99.6993 43.4119L130.704 39.8706C131.545 40.536 132.6 40.8699 133.671 40.8091C134.741 40.7482 135.752 40.2968 136.512 39.5403C137.272 38.7839 137.728 37.7749 137.794 36.7047C137.859 35.6345 137.53 34.5774 136.869 33.7336H136.869Z" fill="#FFB6B6"/>
<path d="M97.1121 45.3704L83.3398 51.8855L70.5715 46.5405L70.5587 46.4373C70.3181 44.5487 70.6497 42.6314 71.5105 40.9333C72.3713 39.2352 73.7217 37.8343 75.3872 36.912C78.0518 35.4268 80.9565 34.4212 83.969 33.9409C92.4148 32.6845 94.1278 32.202 94.1441 32.1972L94.3299 32.1433L97.1121 45.3704Z" fill="#FA6F20"/>
<path d="M56.5184 24.3994C56.3803 24.4 56.243 24.3778 56.112 24.3338C55.5979 24.1085 55.1681 23.7265 54.884 23.2424C52.9008 20.39 51.9432 16.5871 52.0382 11.939C52.0783 9.9726 52.3008 7.45843 53.678 5.45435C54.836 3.76919 57.1786 2.43186 59.3618 3.10315C59.3369 2.66659 59.4339 2.23171 59.6418 1.84702C59.8497 1.46233 60.1603 1.14297 60.5392 0.924556C61.3757 0.494783 62.2993 0.261479 63.2396 0.242393C65.4569 0.0345733 67.7491 -0.180254 69.9943 0.245191C72.5117 0.722686 74.5701 2.02025 75.6416 3.8051L75.6636 3.86117L75.8814 4.91885C75.9106 5.06103 75.9704 5.19519 76.0564 5.31207C76.1425 5.42895 76.2529 5.52579 76.38 5.5959C76.5071 5.66602 76.6479 5.70775 76.7927 5.71822C76.9375 5.72869 77.0828 5.70766 77.2187 5.65656C77.367 5.60073 77.5273 5.58454 77.6838 5.60958C77.8403 5.63463 77.9875 5.70003 78.111 5.79935C78.2344 5.89868 78.3299 6.02849 78.3879 6.17596C78.4459 6.32343 78.4644 6.48347 78.4416 6.64029L78.3808 7.06103L79.0141 6.94254C79.1725 6.913 79.3359 6.92598 79.4877 6.98015C79.6395 7.03433 79.7742 7.12776 79.8781 7.25095C79.982 7.37413 80.0514 7.52265 80.0793 7.68139C80.1071 7.84013 80.0924 8.00341 80.0365 8.15459L79.8576 8.6384C79.9887 8.63923 80.1181 8.6669 80.238 8.7197C80.358 8.7725 80.4658 8.84931 80.5549 8.9454C80.683 9.08312 80.7637 9.2582 80.7852 9.44506C80.8067 9.63192 80.7679 9.82075 80.6744 9.98397C79.9668 11.1941 78.9628 12.2042 77.757 12.9192C77.0981 13.3156 76.3775 13.599 75.625 13.7577C70.7421 14.8114 65.7075 14.9628 60.7701 14.2043C61.0624 15.1782 61.1749 16.1971 61.1022 17.2112C61.0593 17.7864 60.86 18.3388 60.5256 18.8087C60.1912 19.2787 59.7347 19.6481 59.2054 19.8771C58.979 19.9508 58.7472 20.0067 58.5121 20.0443C58.2874 20.0793 58.066 20.1331 57.8503 20.2052C57.5306 20.3226 57.2475 20.5223 57.0295 20.7841C56.8116 21.0458 56.6666 21.3605 56.6091 21.6962C56.5516 22.0319 56.5836 22.3769 56.702 22.6963C56.8204 23.0157 57.0209 23.2982 57.2833 23.5154L57.7736 23.0044L57.6141 23.654C57.5808 23.7804 57.5213 23.8985 57.4394 24.0004C57.3575 24.1024 57.2551 24.186 57.1388 24.2457C56.9479 24.3476 56.7347 24.4004 56.5184 24.3994Z" fill="#2F2E41"/>
<path d="M131.449 160.773C166.742 160.773 195.352 132.599 195.352 97.8454C195.352 63.0915 166.742 34.918 131.449 34.918C96.1563 34.918 67.5459 63.0915 67.5459 97.8454C67.5459 132.599 96.1563 160.773 131.449 160.773Z" fill="url(#paint0_linear_1181_266)"/>
<path d="M184.397 97.8453C184.405 105.391 182.749 112.846 179.545 119.678C179.446 119.888 179.344 120.099 179.243 120.31C174.343 130.347 166.382 138.568 156.508 143.789C156.301 143.898 156.094 144.007 155.886 144.112C148.324 147.988 139.946 150.002 131.449 149.986C128.501 149.987 125.558 149.747 122.65 149.27C122.418 149.231 122.186 149.192 121.958 149.15C111.075 147.214 101.067 141.928 93.3317 134.031C93.1702 133.866 93.0087 133.698 92.8436 133.529C85.4351 125.795 80.6132 115.95 79.0448 105.356C79.0132 105.124 78.9781 104.892 78.95 104.66C77.5188 93.8887 79.5254 82.9401 84.6837 73.3761C84.7925 73.1689 84.9084 72.9618 85.0208 72.7581C88.9938 65.6633 94.5556 59.5848 101.27 54.9987C101.464 54.8653 101.657 54.7353 101.85 54.6054C108.338 50.2911 115.696 47.4563 123.401 46.3015C123.633 46.2699 123.865 46.2348 124.096 46.2032C126.533 45.8699 128.99 45.7033 131.449 45.7047C139.193 45.692 146.847 47.3633 153.882 50.6027C154.096 50.701 154.306 50.7994 154.517 50.9012C161.096 54.0403 166.957 58.5037 171.732 64.0118C171.887 64.1874 172.041 64.3664 172.189 64.5455C177.961 71.3575 181.864 79.5522 183.516 88.3266V88.3301C183.561 88.5583 183.6 88.7865 183.639 89.0183C184.144 91.9334 184.398 94.8867 184.397 97.8453Z" fill="white"/>
<path d="M136.677 93.8819C137.406 94.7851 137.879 95.8674 138.046 97.0158L163.558 92.204C162.55 86.7805 160.148 81.7127 156.588 77.4993L136.677 93.8819Z" fill="#FA6F20"/>
<path d="M164.359 92.6524C164.328 92.4207 164.285 92.1925 164.243 91.9643V91.9607C163.215 86.4205 160.764 81.243 157.13 76.9365C156.979 76.7575 156.824 76.5784 156.67 76.4063C153.741 73.0689 150.177 70.3476 146.185 68.4009H146.182C145.971 68.2991 145.764 68.1972 145.55 68.0989C139.696 65.4106 133.195 64.4518 126.814 65.3356C126.583 65.3637 126.351 65.3988 126.119 65.4375C121.496 66.1692 117.078 67.8655 113.152 70.4163C112.956 70.5427 112.759 70.6726 112.566 70.806C108.256 73.7279 104.693 77.6225 102.166 82.1752C102.054 82.3788 101.941 82.586 101.829 82.7966C98.6722 88.8052 97.4855 95.6545 98.4372 102.375C98.4653 102.61 98.5004 102.842 98.5426 103.07C99.6054 109.544 102.603 115.544 107.141 120.282C107.299 120.45 107.461 120.619 107.629 120.784C112.407 125.599 118.536 128.847 125.203 130.095C125.434 130.141 125.666 130.18 125.898 130.218C133.003 131.397 140.298 130.278 146.723 127.023C146.93 126.918 147.133 126.809 147.341 126.697H147.344C153.418 123.447 158.332 118.391 161.406 112.227C161.512 112.017 161.613 111.806 161.712 111.595C164.486 105.693 165.409 99.0892 164.359 92.6525L164.359 92.6524ZM161.073 111.304C160.974 111.518 160.873 111.729 160.767 111.936C157.754 117.959 152.948 122.9 147.011 126.079C146.803 126.187 146.596 126.296 146.389 126.402C140.105 129.587 132.967 130.681 126.017 129.523C125.786 129.488 125.55 129.449 125.322 129.404C118.807 128.182 112.817 125.009 108.146 120.306C107.977 120.141 107.816 119.973 107.654 119.804C103.22 115.173 100.286 109.311 99.2378 102.986C99.1992 102.758 99.164 102.526 99.1325 102.294C98.202 95.7189 99.3614 89.0175 102.447 83.1372C102.552 82.93 102.665 82.7229 102.781 82.5157C105.259 78.0548 108.751 74.2395 112.977 71.3783C113.17 71.2449 113.363 71.115 113.56 70.9921C117.393 68.5055 121.705 66.8501 126.217 66.1327C126.446 66.0941 126.677 66.0589 126.913 66.0309C133.158 65.166 139.52 66.1053 145.248 68.738C145.462 68.8328 145.673 68.9346 145.88 69.0364C149.781 70.9364 153.265 73.5932 156.129 76.8522C156.284 77.0278 156.438 77.2069 156.585 77.386C160.146 81.5994 162.548 86.6672 163.555 92.0907C163.597 92.3189 163.636 92.5471 163.671 92.7824C164.691 99.0769 163.785 105.533 161.073 111.304V111.304Z" fill="#CCCCCC"/>
<path d="M129.009 92.6067L128.436 93.014L112.977 71.3783L112.566 70.8059L101.271 54.9987C101.464 54.8653 101.657 54.7354 101.85 54.6055L113.152 70.4162L113.56 70.992L129.009 92.6067Z" fill="#CCCCCC"/>
<path d="M126.246 95.4053L125.905 96.0232L102.447 83.1373L101.829 82.7967L84.6841 73.3763C84.7929 73.1691 84.9088 72.962 85.0212 72.7583L102.166 82.1752L102.781 82.5158L126.246 95.4053Z" fill="#CCCCCC"/>
<path d="M125.947 99.8539L99.2377 102.986L98.5425 103.07L79.045 105.356C79.0134 105.124 78.9783 104.892 78.9502 104.661L98.4371 102.375L99.1323 102.294L125.866 99.1587L125.947 99.8539Z" fill="#CCCCCC"/>
<path d="M127.671 102.213L108.145 120.306L107.629 120.784L93.3318 134.032C93.1703 133.866 93.0088 133.698 92.8438 133.529L107.141 120.282L107.654 119.804L127.193 101.697L127.671 102.213Z" fill="#CCCCCC"/>
<path d="M154.517 50.9012L146.185 68.4008H146.182L145.88 69.0363L134.489 92.9613L133.857 92.6594L145.248 68.7379L145.55 68.0989L153.882 50.6028C154.096 50.7011 154.306 50.7994 154.517 50.9012Z" fill="#CCCCCC"/>
<path d="M172.189 64.5457L157.13 76.9366L156.586 77.386L136 94.3238L135.554 93.7831L156.129 76.8523L156.67 76.4063L171.733 64.012C171.887 64.1876 172.042 64.3666 172.189 64.5457Z" fill="#CCCCCC"/>
<path d="M183.639 89.0183L164.359 92.6523L163.671 92.7822L137.288 97.7575L137.158 97.0694L163.555 92.0905L164.243 91.9641V91.9606L183.516 88.3301C183.562 88.5583 183.6 88.7866 183.639 89.0183Z" fill="#CCCCCC"/>
<path d="M179.545 119.678C179.447 119.888 179.345 120.099 179.243 120.31L161.406 112.227L160.767 111.936L136.677 101.019L136.969 100.38L161.073 111.304L161.712 111.595L179.545 119.678Z" fill="#CCCCCC"/>
<path d="M156.508 143.789C156.301 143.898 156.094 144.007 155.887 144.112L146.723 127.023L146.389 126.402L133.865 103.045L134.483 102.715L147.011 126.079L147.341 126.697H147.344L156.508 143.789Z" fill="#CCCCCC"/>
<path d="M130.431 103.611L126.017 129.523L125.898 130.218L122.65 149.27C122.418 149.231 122.187 149.192 121.958 149.15L125.203 130.095L125.322 129.404L129.736 103.491L130.431 103.611Z" fill="#CCCCCC"/>
<path d="M130.631 92.2065L129.936 92.3048L126.217 66.1327L126.119 65.4375L123.401 46.3017C123.633 46.2701 123.865 46.235 124.097 46.2034L126.814 65.3356L126.913 66.0309L130.631 92.2065Z" fill="#CCCCCC"/>
<path d="M131.449 104.415C135.133 104.415 138.12 101.474 138.12 97.8455C138.12 94.2173 135.133 91.2761 131.449 91.2761C127.765 91.2761 124.778 94.2173 124.778 97.8455C124.778 101.474 127.765 104.415 131.449 104.415Z" fill="#673AB7"/>
<path d="M268.682 281.493L263.689 285.674L245.185 268.403L252.555 262.232L268.682 281.493Z" fill="#A0616A"/>
<path d="M273.22 286.554L257.865 299.412L257.702 299.218C256.375 297.633 255.732 295.585 255.914 293.526C256.096 291.467 257.089 289.564 258.674 288.237L258.675 288.236L259.697 283.76L266.713 281.506L268.053 280.383L273.22 286.554Z" fill="#2F2E41"/>
<path d="M224.068 297.436L217.556 297.436L214.458 272.315L224.07 272.315L224.068 297.436Z" fill="#A0616A"/>
<path d="M224.298 304.231L204.27 304.23V303.977C204.27 301.909 205.092 299.926 206.553 298.465C208.015 297.003 209.998 296.181 212.065 296.181H212.066L215.724 293.406L222.55 296.182L224.298 296.182L224.298 304.231Z" fill="#2F2E41"/>
<path d="M240.358 177.223C241.931 179.189 241.144 185.876 241.144 185.876L241.53 227.517C248.216 233.024 253.337 255.885 253.337 255.885L259.721 267.632C258.935 269.991 253.831 279.22 252.258 278.826C251.528 278.644 242.442 270.264 236.399 257.836C229.419 243.48 225.412 224.814 225.412 224.814C225.412 224.814 226.198 278.304 226.198 280.664C226.198 283.024 215.579 281.844 213.219 281.844C210.859 281.844 198.712 185.482 198.712 185.482V179.976L200.678 177.223C200.678 177.223 238.784 175.256 240.358 177.223Z" fill="#7C5157"/>
<path d="M155.809 88.3135L151.04 90.5393L156.355 89.4264C156.355 89.4264 160.261 89.5854 160.261 87.9956L166.62 84.4979C166.62 84.4979 172.026 87.3596 173.616 85.7697C175.205 84.1799 172.344 81.0002 172.344 81.0002C172.344 81.0002 174.259 79.9436 174.096 79.518C173.934 79.0923 171.39 79.7283 171.39 79.7283C171.39 79.7283 165.348 76.2306 165.666 82.272L159.307 86.4883C159.307 86.4883 156.127 86.4057 155.809 88.3135Z" fill="#673AB7"/>
<path d="M242.543 190.84C234.196 194.981 224.264 196.234 214.908 195.134C206.843 194.184 205.166 185.173 197.68 181.976C200.046 175.179 200.074 166.156 199.675 163.624C198.991 159.301 198.864 129.166 201.369 126.027C204.654 121.91 209.67 119.711 209.442 114.448L210.145 115.17C209.257 112.834 210.976 110.16 213.24 109.103C215.504 108.046 218.119 108.18 220.613 108.336C222.714 108.467 224.814 108.599 226.914 108.73C226.639 109.587 226.573 110.498 226.72 111.386C226.867 112.274 227.224 113.114 227.761 113.837C231.484 112.81 235.411 115.54 237.074 119.022C238.737 122.506 238.697 126.526 238.622 130.386C238.536 134.852 241.846 166.215 237.841 168.199C239.906 168.72 242.826 179.734 241.063 178.541C241.879 179.112 241.682 184.445 242.543 190.84Z" fill="#FA6F20"/>
<path d="M161.409 83.123C162.309 82.8585 163.256 82.7944 164.183 82.9355C165.111 83.0766 165.996 83.4193 166.776 83.9394C167.557 84.4596 168.214 85.1447 168.701 85.9463C169.189 86.7479 169.494 87.6466 169.597 88.5791L205.012 119.718L198.617 123.966L163.466 95.7699C161.888 95.838 160.34 95.325 159.115 94.328C157.89 93.331 157.074 91.9193 156.82 90.3604C156.566 88.8015 156.893 87.2037 157.739 85.8698C158.585 84.5359 159.89 83.5586 161.409 83.123Z" fill="#A0616A"/>
<path d="M199.547 109.673C198.772 109.717 180.469 96.3622 180.001 96.9816L178.771 103.652L175.388 108.126L182.701 115.879L184.791 117.593L186.134 119.013C185.664 119.642 188.783 123.01 188.952 123.779C189.034 124.155 189.196 124.509 189.426 124.818C189.657 125.126 189.951 125.381 190.289 125.566L202.19 132.023C203.776 133.201 205.765 133.702 207.721 133.416C209.676 133.13 211.438 132.08 212.62 130.497C213.802 128.913 214.309 126.926 214.028 124.969C213.747 123.013 212.701 121.249 211.121 120.062L209.366 118.287L206.677 115.562L201.645 110.466C201.374 110.19 201.045 109.976 200.683 109.839C200.321 109.702 199.934 109.645 199.547 109.673Z" fill="#FA6F20"/>
<path d="M219.291 104.809C226.421 104.809 232.201 99.0291 232.201 91.8992C232.201 84.7692 226.421 78.9893 219.291 78.9893C212.161 78.9893 206.381 84.7692 206.381 91.8992C206.381 99.0291 212.161 104.809 219.291 104.809Z" fill="#A0616A"/>
<path d="M234.692 87.8107C233.974 84.9619 231.296 82.4765 228.372 82.7648C228.733 80.57 227.272 78.36 225.303 77.3257C223.334 76.2913 220.982 76.247 218.787 76.6072C217.512 76.8384 216.25 77.1333 215.005 77.4908C213.948 77.7752 208.995 76.0795 207.946 76.389C207.049 76.6537 204.889 79.8685 204.208 80.5098C203.527 81.1511 203.166 82.2305 203.621 83.0479C204.07 83.8551 205.098 84.118 206.019 84.1936C206.94 84.2692 207.929 84.2559 208.693 84.7748C209.675 85.4418 209.953 86.7717 209.913 87.9582C209.874 89.1447 209.601 90.3413 209.823 91.5077C210.045 92.674 210.988 93.8391 212.173 93.759C213.06 92.8241 214.68 92.8841 215.697 93.6751C216.183 94.1003 216.572 94.6256 216.836 95.215C217.1 95.8044 217.234 96.444 217.228 97.0899C217.208 98.3801 217.007 99.6611 216.633 100.896C216.42 101.748 216.259 102.782 216.89 103.393C217.262 103.69 217.71 103.876 218.182 103.933C220.046 104.328 227.041 103.791 228.905 104.187L228.761 103.903C230.111 101.293 231.903 98.9309 233.23 96.3098C234.557 93.6887 235.409 90.6595 234.692 87.8107Z" fill="#2F2E41"/>
<path d="M254.508 194.433C253.596 194.215 252.742 193.799 252.008 193.215C251.274 192.631 250.677 191.893 250.258 191.053C249.84 190.214 249.611 189.293 249.587 188.355C249.564 187.417 249.746 186.485 250.121 185.626L234.901 140.991L242.562 140.489L259.017 182.44C260.42 183.166 261.507 184.381 262.073 185.856C262.64 187.33 262.646 188.961 262.09 190.439C261.534 191.918 260.455 193.141 259.058 193.877C257.66 194.613 256.041 194.811 254.508 194.433Z" fill="#A0616A"/>
<path d="M231.376 146.827C232.071 147.174 241.299 167.867 242.014 167.562L246.401 162.389L251.562 160.192L249.077 149.828L248.117 147.301L247.659 145.401C248.38 145.089 247.35 140.615 247.586 139.865C247.703 139.498 247.739 139.11 247.692 138.728C247.646 138.345 247.518 137.978 247.317 137.649L240.208 126.125C239.418 124.314 237.942 122.89 236.104 122.165C234.265 121.44 232.215 121.473 230.401 122.258C228.587 123.043 227.159 124.516 226.429 126.352C225.7 128.189 225.728 130.239 226.508 132.055L227.147 134.469L228.123 138.171L229.951 145.095C230.049 145.469 230.228 145.818 230.474 146.117C230.72 146.416 231.028 146.658 231.376 146.827Z" fill="#FA6F20"/>
<path d="M290.27 296.844L286.673 291.065L285.955 294.367C285.829 294.946 285.703 295.534 285.587 296.117C284.565 295.244 283.478 294.437 282.415 293.663C279.15 291.294 275.886 288.921 272.624 286.545L273.646 292.469C274.275 296.117 274.933 299.839 276.491 303.174C276.664 303.552 276.85 303.925 277.051 304.289H292.229C292.351 303.951 292.435 303.6 292.481 303.244C292.485 303.221 292.486 303.197 292.485 303.174C292.723 300.912 291.473 298.78 290.27 296.844Z" fill="#F0F0F0"/>
<path d="M303.116 304.857L174.494 305C174.347 305 174.205 304.941 174.101 304.837C173.997 304.733 173.938 304.592 173.938 304.445C173.938 304.297 173.997 304.156 174.101 304.052C174.205 303.948 174.347 303.889 174.494 303.889L303.116 303.746C303.189 303.746 303.262 303.76 303.329 303.788C303.397 303.815 303.458 303.856 303.51 303.908C303.562 303.96 303.603 304.021 303.631 304.088C303.659 304.156 303.673 304.228 303.673 304.301C303.673 304.374 303.659 304.447 303.631 304.514C303.603 304.582 303.562 304.643 303.51 304.695C303.458 304.746 303.397 304.787 303.329 304.815C303.262 304.843 303.189 304.857 303.116 304.857Z" fill="#CACACA"/>
<path d="M117.255 207.999L113.659 202.22L112.94 205.522C112.814 206.101 112.689 206.689 112.572 207.272C111.55 206.399 110.464 205.592 109.4 204.818C106.135 202.449 102.871 200.076 99.6094 197.7L100.631 203.624C101.261 207.272 101.918 210.994 103.476 214.329C103.649 214.707 103.835 215.08 104.036 215.444H119.214C119.336 215.106 119.421 214.755 119.466 214.399C119.47 214.376 119.471 214.352 119.471 214.329C119.709 212.067 118.458 209.935 117.255 207.999Z" fill="#FA6F20"/>
<path d="M130.101 216.012L1.47907 216.155C1.33205 216.155 1.19121 216.096 1.0874 215.992C0.98359 215.888 0.925293 215.747 0.925293 215.6C0.925293 215.453 0.98359 215.312 1.0874 215.207C1.19121 215.103 1.33205 215.045 1.47907 215.044L130.101 214.901C130.174 214.901 130.247 214.915 130.314 214.943C130.382 214.971 130.443 215.011 130.495 215.063C130.547 215.115 130.588 215.176 130.616 215.243C130.644 215.311 130.658 215.383 130.658 215.456C130.658 215.529 130.644 215.602 130.616 215.669C130.588 215.737 130.547 215.798 130.495 215.85C130.443 215.901 130.382 215.942 130.314 215.97C130.247 215.998 130.174 216.012 130.101 216.012Z" fill="#673AB7"/>
<path d="M70.613 108.776C70.0073 108.58 69.4521 108.252 68.9866 107.818C68.521 107.383 68.1564 106.852 67.9185 106.261C67.6805 105.67 67.575 105.035 67.6093 104.399C67.6436 103.763 67.8169 103.142 68.117 102.581L56.354 69.2112L57.5318 58.1093L62.3309 55.0029L67.1752 70.5219L74.3085 100.902C75.2187 101.469 75.8893 102.349 76.1934 103.378C76.4975 104.406 76.4139 105.51 75.9584 106.481C75.5029 107.451 74.7071 108.221 73.7219 108.644C72.7367 109.067 71.6305 109.114 70.613 108.776L70.613 108.776Z" fill="#FFB6B6"/>
<path d="M50.0156 46.4322L61.1408 42.126L67.6001 63.6576L52.6907 68.3822L50.0156 46.4322Z" fill="#FA6F20"/>
</g>
<defs>
<linearGradient id="paint0_linear_1181_266" x1="67.5459" y1="34.918" x2="195.352" y2="34.918" gradientUnits="userSpaceOnUse">
<stop stop-color="#FF995D"/>
<stop offset="0.142857" stop-color="#FB795C"/>
<stop offset="0.285714" stop-color="#F35861"/>
<stop offset="0.428571" stop-color="#E5346C"/>
<stop offset="0.571429" stop-color="#CE007A"/>
<stop offset="0.714286" stop-color="#AF0089"/>
<stop offset="0.857143" stop-color="#830098"/>
<stop offset="1" stop-color="#3D14A4"/>
</linearGradient>
<clipPath id="clip0_1181_266">
<rect width="302.748" height="305" fill="white" transform="translate(0.923828)"/>
</clipPath>
</defs>
</svg>
