<svg width="313" height="302" viewBox="0 0 313 302" fill="none" xmlns="http://www.w3.org/2000/svg">
<path d="M157.877 45.0639C170.15 45.0639 180.099 35.1253 180.099 22.8653C180.099 10.6054 170.15 0.666748 157.877 0.666748C145.604 0.666748 135.654 10.6054 135.654 22.8653C135.654 35.1253 145.604 45.0639 157.877 45.0639Z" fill="#673AB7" fill-opacity="0.5"/>
<path d="M157.878 48.7637H157.878C165.736 48.7637 173.272 51.882 178.829 57.4328C184.386 62.9835 187.507 70.5119 187.507 78.3618V79.8417H128.248V78.3618C128.248 70.5119 131.37 62.9835 136.926 57.4328C142.483 51.882 150.019 48.7637 157.878 48.7637Z" fill="#673AB7" fill-opacity="0.5"/>
<path d="M112.692 56.163C121.283 56.163 128.248 49.2059 128.248 40.624C128.248 32.042 121.283 25.085 112.692 25.085C104.101 25.085 97.1367 32.042 97.1367 40.624C97.1367 49.2059 104.101 56.163 112.692 56.163Z" fill="#FA6F20" fill-opacity="0.5"/>
<path d="M127.927 63.3024C124.938 60.6541 121.246 58.9251 117.296 58.3234C113.346 57.7217 109.305 58.2728 105.662 59.9106C102.018 61.5483 98.9249 64.2029 96.7556 67.555C94.5863 70.9071 93.4327 74.8139 93.4336 78.8054V79.8413H123.804V78.3614C123.797 73.0626 125.222 67.8601 127.927 63.3024Z" fill="#FA6F20" fill-opacity="0.5"/>
<path d="M203.063 56.163C211.655 56.163 218.619 49.2059 218.619 40.624C218.619 32.042 211.655 25.085 203.063 25.085C194.472 25.085 187.508 32.042 187.508 40.624C187.508 49.2059 194.472 56.163 203.063 56.163Z" fill="#FA6F20" fill-opacity="0.5"/>
<path d="M187.828 63.3024C190.818 60.6541 194.51 58.9251 198.46 58.3234C202.41 57.7217 206.45 58.2728 210.094 59.9106C213.738 61.5483 216.831 64.2029 219 67.555C221.169 70.9071 222.323 74.8139 222.322 78.8054V79.8413H191.952V78.3614C191.958 73.0626 190.534 67.8601 187.828 63.3024Z" fill="#FA6F20" fill-opacity="0.5"/>
<path d="M207.43 133.633L88.7817 202.829C88.3664 203.07 87.8721 203.138 87.4071 203.016C86.9422 202.894 86.5446 202.594 86.3016 202.18L10.0028 71.9175C9.76077 71.5031 9.6933 71.0099 9.81524 70.5459C9.93717 70.082 10.2386 69.6852 10.6533 69.4427L129.302 0.246938C129.717 0.0053889 130.211 -0.061934 130.676 0.059739C131.141 0.181412 131.539 0.482146 131.782 0.895964L208.081 131.158C208.323 131.573 208.39 132.066 208.268 132.53C208.146 132.994 207.845 133.39 207.43 133.633Z" fill="white"/>
<path d="M207.43 133.633L88.7817 202.829C88.3664 203.07 87.8721 203.138 87.4071 203.016C86.9422 202.894 86.5446 202.594 86.3016 202.18L10.0028 71.9175C9.76077 71.5031 9.6933 71.0099 9.81524 70.5459C9.93717 70.082 10.2386 69.6852 10.6533 69.4427L129.302 0.246938C129.717 0.0053889 130.211 -0.061934 130.676 0.059739C131.141 0.181412 131.539 0.482146 131.782 0.895964L208.081 131.158C208.323 131.573 208.39 132.066 208.268 132.53C208.146 132.994 207.845 133.39 207.43 133.633ZM11.0192 70.0675C10.7704 70.213 10.5895 70.451 10.5164 70.7294C10.4432 71.0078 10.4837 71.3037 10.629 71.5524L86.9277 201.815C87.0735 202.063 87.312 202.243 87.591 202.316C87.87 202.389 88.1666 202.349 88.4157 202.204L207.064 133.008C207.313 132.863 207.494 132.625 207.567 132.346C207.64 132.068 207.6 131.772 207.454 131.523L131.156 1.26109C131.01 1.01279 130.771 0.832339 130.492 0.759334C130.213 0.686329 129.917 0.72673 129.668 0.871676L11.0192 70.0675Z" fill="url(#paint0_linear_1207_1274)"/>
<path d="M207.43 133.633L88.7817 202.829C88.3664 203.07 87.8721 203.138 87.4071 203.016C86.9422 202.894 86.5446 202.594 86.3016 202.18L10.0028 71.9175C9.76077 71.5031 9.6933 71.0099 9.81524 70.5459C9.93717 70.082 10.2386 69.6852 10.6533 69.4427L129.302 0.246938C129.717 0.0053889 130.211 -0.061934 130.676 0.059739C131.141 0.181412 131.539 0.482146 131.782 0.895964L208.081 131.158C208.323 131.573 208.39 132.066 208.268 132.53C208.146 132.994 207.845 133.39 207.43 133.633ZM11.0192 70.0675C10.7704 70.213 10.5895 70.451 10.5164 70.7294C10.4432 71.0078 10.4837 71.3037 10.629 71.5524L86.9277 201.815C87.0735 202.063 87.312 202.243 87.591 202.316C87.87 202.389 88.1666 202.349 88.4157 202.204L207.064 133.008C207.313 132.863 207.494 132.625 207.567 132.346C207.64 132.068 207.6 131.772 207.454 131.523L131.156 1.26109C131.01 1.01279 130.771 0.832339 130.492 0.759334C130.213 0.686329 129.917 0.72673 129.668 0.871676L11.0192 70.0675Z" fill="black" fill-opacity="0.2"/>
<path d="M87.2873 83.0396L57.8599 100.202C57.4447 100.443 56.9503 100.51 56.4854 100.389C56.0204 100.267 55.6228 99.9664 55.3798 99.5526L38.1806 70.1889C37.9385 69.7745 37.871 69.2813 37.993 68.8173C38.1149 68.3534 38.4163 67.9566 38.831 67.7141L68.2583 50.5521C68.6736 50.3106 69.1679 50.2432 69.6329 50.3649C70.0978 50.4866 70.4954 50.7873 70.7385 51.2011L87.9377 80.5648C88.1798 80.9792 88.2472 81.4725 88.1253 81.9364C88.0034 82.4003 87.702 82.7971 87.2873 83.0396ZM39.197 68.3389C38.9481 68.4844 38.7673 68.7224 38.6941 69.0008C38.6209 69.2792 38.6614 69.5751 38.8067 69.8238L56.0059 99.1874C56.1517 99.4357 56.3903 99.6162 56.6693 99.6892C56.9482 99.7622 57.2449 99.7218 57.494 99.5768L86.9213 82.4148C87.1702 82.2693 87.351 82.0313 87.4242 81.7529C87.4973 81.4745 87.4569 81.1786 87.3116 80.93L70.1124 51.5663C69.9666 51.318 69.728 51.1375 69.449 51.0645C69.1701 50.9915 68.8734 51.0319 68.6243 51.1769L39.197 68.3389Z" fill="#F2F2F2"/>
<path d="M80.9384 91.5615L51.5111 108.723C51.1373 108.941 50.6924 109.001 50.274 108.892C49.8555 108.782 49.4977 108.512 49.279 108.139L32.0797 78.7757C31.8618 78.4027 31.8011 77.9588 31.9109 77.5413C32.0206 77.1237 32.2919 76.7666 32.6651 76.5484L62.0924 59.3864C62.4662 59.169 62.9111 59.1084 63.3295 59.2179C63.748 59.3274 64.1058 59.598 64.3246 59.9705L81.5238 89.3342C81.7417 89.7071 81.8024 90.151 81.6926 90.5686C81.5829 90.9861 81.3116 91.3432 80.9384 91.5615Z" fill="#FA6F20"/>
<path d="M151.966 69.416L59.9278 123.093C59.5541 123.311 59.1091 123.372 58.6904 123.262C58.2718 123.153 57.914 122.882 57.6956 122.509C57.4773 122.136 57.4163 121.692 57.526 121.274C57.6358 120.856 57.9074 120.499 58.281 120.282L150.32 66.6046C150.505 66.4967 150.709 66.4262 150.921 66.3972C151.134 66.3681 151.35 66.3811 151.557 66.4353C151.764 66.4896 151.959 66.584 152.129 66.7133C152.3 66.8425 152.444 67.0041 152.552 67.1887C152.66 67.3733 152.731 67.5773 152.76 67.7892C152.789 68.001 152.776 68.2165 152.721 68.4233C152.667 68.6301 152.572 68.8243 152.443 68.9946C152.313 69.1649 152.151 69.3081 151.966 69.416Z" fill="url(#paint1_linear_1207_1274)" fill-opacity="0.7"/>
<path d="M151.966 69.416L59.9278 123.093C59.5541 123.311 59.1091 123.372 58.6904 123.262C58.2718 123.153 57.914 122.882 57.6956 122.509C57.4773 122.136 57.4163 121.692 57.526 121.274C57.6358 120.856 57.9074 120.499 58.281 120.282L150.32 66.6046C150.505 66.4967 150.709 66.4262 150.921 66.3972C151.134 66.3681 151.35 66.3811 151.557 66.4353C151.764 66.4896 151.959 66.584 152.129 66.7133C152.3 66.8425 152.444 67.0041 152.552 67.1887C152.66 67.3733 152.731 67.5773 152.76 67.7892C152.789 68.001 152.776 68.2165 152.721 68.4233C152.667 68.6301 152.572 68.8243 152.443 68.9946C152.313 69.1649 152.151 69.3081 151.966 69.416Z" fill="black" fill-opacity="0.2"/>
<path d="M135.411 92.0627L65.5996 132.777C65.4146 132.885 65.2101 132.955 64.9978 132.984C64.7856 133.013 64.5696 133 64.3623 132.946C63.9437 132.837 63.5859 132.566 63.3675 132.193C63.1491 131.82 63.0881 131.376 63.1979 130.958C63.3077 130.54 63.5793 130.183 63.9529 129.965L133.765 89.2513C133.95 89.1434 134.154 89.0729 134.366 89.0439C134.579 89.0149 134.795 89.0278 135.002 89.0821C135.209 89.1363 135.404 89.2308 135.574 89.36C135.745 89.4893 135.889 89.6508 135.997 89.8354C136.105 90.02 136.175 90.2241 136.205 90.4359C136.234 90.6477 136.221 90.8632 136.166 91.07C136.112 91.2769 136.017 91.471 135.888 91.6413C135.758 91.8116 135.596 91.9548 135.411 92.0627V92.0627Z" fill="url(#paint2_linear_1207_1274)" fill-opacity="0.7"/>
<path d="M135.411 92.0627L65.5996 132.777C65.4146 132.885 65.2101 132.955 64.9978 132.984C64.7856 133.013 64.5696 133 64.3623 132.946C63.9437 132.837 63.5859 132.566 63.3675 132.193C63.1491 131.82 63.0881 131.376 63.1979 130.958C63.3077 130.54 63.5793 130.183 63.9529 129.965L133.765 89.2513C133.95 89.1434 134.154 89.0729 134.366 89.0439C134.579 89.0149 134.795 89.0278 135.002 89.0821C135.209 89.1363 135.404 89.2308 135.574 89.36C135.745 89.4893 135.889 89.6508 135.997 89.8354C136.105 90.02 136.175 90.2241 136.205 90.4359C136.234 90.6477 136.221 90.8632 136.166 91.07C136.112 91.2769 136.017 91.471 135.888 91.6413C135.758 91.8116 135.596 91.9548 135.411 92.0627V92.0627Z" fill="black" fill-opacity="0.2"/>
<path d="M130.795 33.9873L90.0977 57.722C89.724 57.9399 89.279 58.0008 88.8604 57.8912C88.4418 57.7817 88.0839 57.5107 87.8656 57.1379C87.6472 56.765 87.5862 56.3209 87.696 55.9032C87.8057 55.4855 88.0773 55.1285 88.4509 54.9106L129.148 31.1759C129.522 30.958 129.967 30.8971 130.386 31.0066C130.593 31.0609 130.787 31.1553 130.958 31.2846C131.129 31.4138 131.272 31.5754 131.38 31.76C131.489 31.9446 131.559 32.1486 131.588 32.3605C131.617 32.5723 131.604 32.7878 131.55 32.9946C131.496 33.2014 131.401 33.3955 131.271 33.5659C131.142 33.7362 130.98 33.8794 130.795 33.9873Z" fill="url(#paint3_linear_1207_1274)" fill-opacity="0.7"/>
<path d="M130.795 33.9873L90.0977 57.722C89.724 57.9399 89.279 58.0008 88.8604 57.8912C88.4418 57.7817 88.0839 57.5107 87.8656 57.1379C87.6472 56.765 87.5862 56.3209 87.696 55.9032C87.8057 55.4855 88.0773 55.1285 88.4509 54.9106L129.148 31.1759C129.522 30.958 129.967 30.8971 130.386 31.0066C130.593 31.0609 130.787 31.1553 130.958 31.2846C131.129 31.4138 131.272 31.5754 131.38 31.76C131.489 31.9446 131.559 32.1486 131.588 32.3605C131.617 32.5723 131.604 32.7878 131.55 32.9946C131.496 33.2014 131.401 33.3955 131.271 33.5659C131.142 33.7362 130.98 33.8794 130.795 33.9873Z" fill="black" fill-opacity="0.2"/>
<path d="M126.31 49.5945L95.7696 67.4058C95.5846 67.5137 95.3801 67.5842 95.1678 67.6132C94.9555 67.6422 94.7395 67.6292 94.5323 67.575C94.325 67.5208 94.1304 67.4263 93.9597 67.2971C93.7891 67.1678 93.6455 67.0063 93.5374 66.8217C93.4293 66.6371 93.3587 66.433 93.3296 66.2212C93.3005 66.0093 93.3135 65.7939 93.3678 65.587C93.4222 65.3802 93.5168 65.1861 93.6464 65.0158C93.7759 64.8455 93.9378 64.7023 94.1228 64.5944L124.663 46.783C125.037 46.5651 125.482 46.5043 125.901 46.6138C126.319 46.7234 126.677 46.9943 126.896 47.3672C127.114 47.74 127.175 48.1841 127.065 48.6018C126.955 49.0195 126.684 49.3766 126.31 49.5945Z" fill="url(#paint4_linear_1207_1274)" fill-opacity="0.7"/>
<path d="M126.31 49.5945L95.7696 67.4058C95.5846 67.5137 95.3801 67.5842 95.1678 67.6132C94.9555 67.6422 94.7395 67.6292 94.5323 67.575C94.325 67.5208 94.1304 67.4263 93.9597 67.2971C93.7891 67.1678 93.6455 67.0063 93.5374 66.8217C93.4293 66.6371 93.3587 66.433 93.3296 66.2212C93.3005 66.0093 93.3135 65.7939 93.3678 65.587C93.4222 65.3802 93.5168 65.1861 93.6464 65.0158C93.7759 64.8455 93.9378 64.7023 94.1228 64.5944L124.663 46.783C125.037 46.5651 125.482 46.5043 125.901 46.6138C126.319 46.7234 126.677 46.9943 126.896 47.3672C127.114 47.74 127.175 48.1841 127.065 48.6018C126.955 49.0195 126.684 49.3766 126.31 49.5945Z" fill="black" fill-opacity="0.2"/>
<path d="M163.312 88.7837L71.2735 142.461C70.8998 142.679 70.4548 142.739 70.0362 142.63C69.6176 142.52 69.2597 142.249 69.0413 141.876C68.823 141.504 68.762 141.06 68.8717 140.642C68.9815 140.224 69.2531 139.867 69.6267 139.649L161.665 85.9722C162.039 85.7543 162.484 85.6935 162.903 85.803C163.321 85.9126 163.679 86.1835 163.898 86.5564C164.116 86.9292 164.177 87.3733 164.067 87.791C163.957 88.2087 163.686 88.5658 163.312 88.7837V88.7837Z" fill="url(#paint5_linear_1207_1274)" fill-opacity="0.7"/>
<path d="M163.312 88.7837L71.2735 142.461C70.8998 142.679 70.4548 142.739 70.0362 142.63C69.6176 142.52 69.2597 142.249 69.0413 141.876C68.823 141.504 68.762 141.06 68.8717 140.642C68.9815 140.224 69.2531 139.867 69.6267 139.649L161.665 85.9722C162.039 85.7543 162.484 85.6935 162.903 85.803C163.321 85.9126 163.679 86.1835 163.898 86.5564C164.116 86.9292 164.177 87.3733 164.067 87.791C163.957 88.2087 163.686 88.5658 163.312 88.7837V88.7837Z" fill="black" fill-opacity="0.2"/>
<path d="M146.757 111.43L76.9453 152.144C76.7603 152.252 76.5558 152.323 76.3435 152.352C76.1313 152.381 75.9153 152.368 75.708 152.314C75.5008 152.259 75.3062 152.165 75.1355 152.036C74.9648 151.906 74.8213 151.745 74.7132 151.56C74.6051 151.376 74.5344 151.172 74.5054 150.96C74.4763 150.748 74.4893 150.532 74.5436 150.326C74.598 150.119 74.6926 149.925 74.8222 149.754C74.9517 149.584 75.1136 149.441 75.2986 149.333L145.11 108.619C145.295 108.511 145.5 108.44 145.712 108.411C145.924 108.382 146.14 108.395 146.348 108.449C146.555 108.504 146.749 108.598 146.92 108.727C147.091 108.857 147.234 109.018 147.342 109.203C147.45 109.387 147.521 109.591 147.55 109.803C147.579 110.015 147.566 110.231 147.512 110.437C147.458 110.644 147.363 110.838 147.233 111.009C147.104 111.179 146.942 111.322 146.757 111.43V111.43Z" fill="url(#paint6_linear_1207_1274)" fill-opacity="0.7"/>
<path d="M146.757 111.43L76.9453 152.144C76.7603 152.252 76.5558 152.323 76.3435 152.352C76.1313 152.381 75.9153 152.368 75.708 152.314C75.5008 152.259 75.3062 152.165 75.1355 152.036C74.9648 151.906 74.8213 151.745 74.7132 151.56C74.6051 151.376 74.5344 151.172 74.5054 150.96C74.4763 150.748 74.4893 150.532 74.5436 150.326C74.598 150.119 74.6926 149.925 74.8222 149.754C74.9517 149.584 75.1136 149.441 75.2986 149.333L145.11 108.619C145.295 108.511 145.5 108.44 145.712 108.411C145.924 108.382 146.14 108.395 146.348 108.449C146.555 108.504 146.749 108.598 146.92 108.727C147.091 108.857 147.234 109.018 147.342 109.203C147.45 109.387 147.521 109.591 147.55 109.803C147.579 110.015 147.566 110.231 147.512 110.437C147.458 110.644 147.363 110.838 147.233 111.009C147.104 111.179 146.942 111.322 146.757 111.43V111.43Z" fill="black" fill-opacity="0.2"/>
<path d="M174.656 108.151L82.6172 161.828C82.4322 161.936 82.2277 162.006 82.0154 162.035C81.8031 162.064 81.5872 162.052 81.3799 161.997C81.1726 161.943 80.9781 161.849 80.8074 161.719C80.6367 161.59 80.4932 161.429 80.3851 161.244C80.277 161.059 80.2063 160.855 80.1772 160.643C80.1481 160.432 80.1611 160.216 80.2155 160.009C80.2698 159.802 80.3645 159.608 80.494 159.438C80.6236 159.268 80.7855 159.125 80.9705 159.017L173.009 105.34C173.194 105.232 173.399 105.161 173.611 105.132C173.823 105.103 174.039 105.116 174.246 105.17C174.454 105.225 174.648 105.319 174.819 105.448C174.99 105.578 175.133 105.739 175.241 105.924C175.349 106.108 175.42 106.312 175.449 106.524C175.478 106.736 175.465 106.952 175.411 107.158C175.356 107.365 175.262 107.559 175.132 107.73C175.003 107.9 174.841 108.043 174.656 108.151Z" fill="url(#paint7_linear_1207_1274)" fill-opacity="0.7"/>
<path d="M174.656 108.151L82.6172 161.828C82.4322 161.936 82.2277 162.006 82.0154 162.035C81.8031 162.064 81.5872 162.052 81.3799 161.997C81.1726 161.943 80.9781 161.849 80.8074 161.719C80.6367 161.59 80.4932 161.429 80.3851 161.244C80.277 161.059 80.2063 160.855 80.1772 160.643C80.1481 160.432 80.1611 160.216 80.2155 160.009C80.2698 159.802 80.3645 159.608 80.494 159.438C80.6236 159.268 80.7855 159.125 80.9705 159.017L173.009 105.34C173.194 105.232 173.399 105.161 173.611 105.132C173.823 105.103 174.039 105.116 174.246 105.17C174.454 105.225 174.648 105.319 174.819 105.448C174.99 105.578 175.133 105.739 175.241 105.924C175.349 106.108 175.42 106.312 175.449 106.524C175.478 106.736 175.465 106.952 175.411 107.158C175.356 107.365 175.262 107.559 175.132 107.73C175.003 107.9 174.841 108.043 174.656 108.151Z" fill="black" fill-opacity="0.2"/>
<path d="M180.328 117.835L88.2891 171.512C88.1041 171.62 87.8996 171.69 87.6873 171.719C87.475 171.748 87.259 171.735 87.0518 171.681C86.8445 171.627 86.65 171.532 86.4793 171.403C86.3086 171.274 86.1651 171.112 86.057 170.928C85.9488 170.743 85.8782 170.539 85.8491 170.327C85.82 170.115 85.833 169.9 85.8874 169.693C85.9417 169.486 86.0364 169.292 86.1659 169.122C86.2954 168.952 86.4573 168.808 86.6423 168.7L178.681 115.024C178.866 114.916 179.071 114.845 179.283 114.816C179.495 114.787 179.711 114.8 179.918 114.854C180.126 114.909 180.32 115.003 180.491 115.132C180.661 115.261 180.805 115.423 180.913 115.608C181.021 115.792 181.092 115.996 181.121 116.208C181.15 116.42 181.137 116.635 181.083 116.842C181.028 117.049 180.934 117.243 180.804 117.414C180.675 117.584 180.513 117.727 180.328 117.835Z" fill="url(#paint8_linear_1207_1274)" fill-opacity="0.7"/>
<path d="M180.328 117.835L88.2891 171.512C88.1041 171.62 87.8996 171.69 87.6873 171.719C87.475 171.748 87.259 171.735 87.0518 171.681C86.8445 171.627 86.65 171.532 86.4793 171.403C86.3086 171.274 86.1651 171.112 86.057 170.928C85.9488 170.743 85.8782 170.539 85.8491 170.327C85.82 170.115 85.833 169.9 85.8874 169.693C85.9417 169.486 86.0364 169.292 86.1659 169.122C86.2954 168.952 86.4573 168.808 86.6423 168.7L178.681 115.024C178.866 114.916 179.071 114.845 179.283 114.816C179.495 114.787 179.711 114.8 179.918 114.854C180.126 114.909 180.32 115.003 180.491 115.132C180.661 115.261 180.805 115.423 180.913 115.608C181.021 115.792 181.092 115.996 181.121 116.208C181.15 116.42 181.137 116.635 181.083 116.842C181.028 117.049 180.934 117.243 180.804 117.414C180.675 117.584 180.513 117.727 180.328 117.835Z" fill="black" fill-opacity="0.2"/>
<path d="M150.564 155.533C151.843 154.03 152.994 152.424 154.005 150.73C154.912 149.203 155.802 147.569 156.002 145.778C156.104 145.015 156.025 144.239 155.769 143.512C155.514 142.786 155.091 142.13 154.534 141.597C153.996 141.102 153.313 140.791 152.586 140.708C151.858 140.626 151.123 140.776 150.487 141.138C149.843 141.507 149.311 142.042 148.948 142.688C148.584 143.334 148.402 144.065 148.421 144.806C148.474 145.621 148.71 146.414 149.112 147.125C149.514 147.837 150.072 148.448 150.744 148.914C153.464 150.881 157.713 150.778 160.613 149.282C163.879 147.596 165.566 143.185 163 140.166C162.466 139.538 161.578 140.24 161.712 140.917C161.882 141.832 162.395 142.648 163.147 143.198C163.899 143.748 164.833 143.991 165.759 143.877C166.684 143.763 167.531 143.301 168.127 142.584C168.722 141.868 169.021 140.952 168.962 140.023L167.808 140.696C169.223 141.321 170.777 141.563 172.314 141.399C173.852 141.234 175.32 140.668 176.569 139.758C177.186 139.31 177.738 138.778 178.208 138.177C178.773 137.442 179.721 136.967 180.489 136.438L186.023 132.622C186.837 132.061 186.063 130.723 185.243 131.289L180.23 134.745C179.395 135.321 178.554 135.89 177.724 136.473C177.131 136.89 176.766 137.563 176.226 138.058C175.203 138.976 173.941 139.584 172.585 139.813C171.229 140.042 169.836 139.882 168.568 139.351C168.45 139.287 168.317 139.255 168.183 139.258C168.049 139.26 167.918 139.297 167.802 139.364C167.686 139.432 167.59 139.528 167.522 139.643C167.454 139.759 167.417 139.89 167.414 140.023C167.475 140.577 167.315 141.133 166.967 141.57C166.619 142.006 166.113 142.288 165.558 142.353C165.003 142.419 164.445 142.263 164.005 141.92C163.565 141.576 163.278 141.074 163.208 140.521L161.92 141.272C163.575 143.219 162.473 146.207 160.566 147.514C158.433 148.975 155.282 149.229 152.878 148.32C152.288 148.118 151.747 147.796 151.287 147.375C150.828 146.955 150.46 146.444 150.207 145.875C149.973 145.361 149.906 144.787 150.016 144.233C150.126 143.68 150.408 143.174 150.821 142.788C151.179 142.436 151.66 142.235 152.163 142.23C152.667 142.225 153.152 142.415 153.517 142.76C153.916 143.165 154.208 143.662 154.368 144.207C154.528 144.751 154.552 145.327 154.437 145.883C154.189 147.429 153.332 148.856 152.535 150.177C151.624 151.682 150.595 153.113 149.456 154.454C148.818 155.208 149.919 156.294 150.564 155.533L150.564 155.533Z" fill="#FA6F20"/>
<path d="M164.301 192.242C164.435 192.378 164.557 192.526 164.667 192.682L181.806 192.263L183.805 188.617L189.714 190.909L186.803 197.706C186.568 198.256 186.16 198.714 185.642 199.012C185.123 199.311 184.522 199.433 183.928 199.362L164.564 197.028C164.107 197.605 163.485 198.029 162.781 198.245C162.076 198.461 161.323 198.457 160.62 198.235C159.918 198.013 159.3 197.583 158.849 197.001C158.397 196.42 158.134 195.716 158.093 194.981C158.053 194.247 158.238 193.518 158.623 192.891C159.008 192.264 159.575 191.769 160.249 191.472C160.923 191.174 161.671 191.089 162.395 191.226C163.119 191.364 163.784 191.718 164.301 192.242Z" fill="#FFB7B7"/>
<path d="M220.172 296.102H214.537L211.855 274.413L220.173 274.413L220.172 296.102Z" fill="#FFB7B7"/>
<path d="M221.608 301.553L203.438 301.553V301.323C203.438 299.452 204.183 297.657 205.509 296.333C206.835 295.01 208.634 294.266 210.51 294.266H210.511L221.609 294.267L221.608 301.553Z" fill="#673AB7"/>
<path d="M169 295.977L163.818 293.768L169.892 272.771L177.54 276.032L169 295.977Z" fill="#FFB7B7"/>
<path d="M168.177 301.553L151.467 294.43L151.557 294.219C152.294 292.498 153.686 291.139 155.427 290.442C157.167 289.745 159.114 289.766 160.839 290.502L160.84 290.502L171.046 294.852L168.177 301.553Z" fill="#673AB7"/>
<path d="M192.779 196.94L192.371 203.53L204.283 204.801L216.747 206.132L213.078 196.127L192.779 196.94Z" fill="#FFB7B7"/>
<path d="M191.997 203.614L187.369 171.424L195.39 168.801L197.746 165.577L209.21 166.254L210.893 170.016L217.005 172.898L216.066 190.307L216.751 204.87L191.997 203.614Z" fill="#FA6F20"/>
<path d="M189.084 194.988L180.926 191.731L180.961 191.586C180.996 191.44 184.468 176.961 184.929 174.634C185.409 172.21 187.164 171.54 187.238 171.513L187.293 171.493L190.522 172.473L191.94 183.591L189.084 194.988Z" fill="#FA6F20"/>
<path d="M173.198 292.165L162.338 289.943L179.695 242.151L185.636 225.849C185.636 225.849 189.404 212.779 191.106 207.721L192.133 200.935L216.453 203.621C216.453 203.621 223.245 213.574 221.181 229.798L222.115 290.776L211.255 291.332L202.158 229.832L186.193 263.546C186.193 263.546 181.161 277.933 177.561 281.051L173.198 292.165Z" fill="#673AB7"/>
<path d="M206.7 205.884C206.891 205.879 207.082 205.89 207.272 205.915L218.617 193.09L217.298 189.148L222.999 186.384L226.015 193.135C226.259 193.68 226.318 194.29 226.185 194.872C226.052 195.454 225.733 195.978 225.277 196.364L210.396 208.946C210.509 209.672 210.398 210.416 210.078 211.078C209.757 211.74 209.243 212.289 208.602 212.652C207.961 213.015 207.224 213.175 206.49 213.11C205.756 213.045 205.06 212.759 204.493 212.289C203.926 211.82 203.515 211.189 203.316 210.481C203.117 209.773 203.139 209.021 203.379 208.326C203.618 207.63 204.065 207.024 204.658 206.588C205.251 206.152 205.963 205.906 206.7 205.884Z" fill="#FFB7B7"/>
<path d="M217.711 194.338L212.979 183.23L214.824 175.492L216.813 172.985C216.959 172.923 217.116 172.892 217.274 172.893C217.433 172.895 217.589 172.929 217.734 172.994C218.467 173.288 219.092 174.191 219.59 175.677L224.026 188.283L217.711 194.338Z" fill="#FA6F20"/>
<path d="M193.156 161.461V153.087C193.156 150.11 194.341 147.256 196.45 145.152C198.559 143.047 201.42 141.865 204.403 141.865C207.385 141.865 210.246 143.047 212.355 145.152C214.464 147.256 215.649 150.11 215.649 153.087V161.461C215.648 161.861 215.489 162.244 215.206 162.527C214.923 162.809 214.539 162.968 214.138 162.969H194.667C194.266 162.968 193.882 162.809 193.599 162.527C193.316 162.244 193.157 161.861 193.156 161.461Z" fill="#673AB7"/>
<path d="M202.093 162.774C206.647 162.774 210.338 159.09 210.338 154.546C210.338 150.002 206.647 146.319 202.093 146.319C197.539 146.319 193.848 150.002 193.848 154.546C193.848 159.09 197.539 162.774 202.093 162.774Z" fill="#FFB7B7"/>
<path d="M190.496 153.757C190.499 151.403 191.437 149.147 193.105 147.483C194.773 145.818 197.034 144.882 199.392 144.88H201.071C203.43 144.882 205.691 145.818 207.359 147.483C209.027 149.147 209.965 151.403 209.967 153.757V153.924H206.42L205.21 150.544L204.968 153.924H203.135L202.524 152.219L202.402 153.924H190.496L190.496 153.757Z" fill="#673AB7"/>
<path d="M201.281 163.91C201.115 163.685 201.015 163.418 200.994 163.139C200.973 162.86 201.032 162.581 201.163 162.334C202.942 158.958 205.432 152.719 202.127 148.872L201.889 148.596H211.486V162.973L202.768 164.508C202.68 164.524 202.59 164.532 202.5 164.532C202.262 164.532 202.028 164.476 201.816 164.368C201.604 164.259 201.421 164.103 201.281 163.91Z" fill="#673AB7"/>
<path d="M89.3281 291.365L94.4209 293.181L103.865 274.443L96.3484 271.763L89.3281 291.365Z" fill="#9F616A"/>
<path d="M86.2656 295.828L88.6243 289.242L98.6541 292.819C100.348 293.425 101.732 294.677 102.502 296.3C103.272 297.923 103.365 299.785 102.762 301.476L102.687 301.684L86.2656 295.828Z" fill="#673AB7"/>
<path d="M122.446 296.391L127.854 296.391L130.428 275.575L122.445 275.576L122.446 296.391Z" fill="#9F616A"/>
<path d="M121.066 294.629L131.717 294.629H131.718C132.609 294.629 133.492 294.804 134.315 295.144C135.139 295.485 135.887 295.983 136.517 296.612C137.148 297.241 137.648 297.988 137.989 298.81C138.33 299.631 138.506 300.512 138.506 301.402V301.622L121.067 301.622L121.066 294.629Z" fill="#673AB7"/>
<path d="M110.121 163.404L112.473 158.767C112.473 158.767 121.236 160.957 122.032 166.025L110.121 163.404Z" fill="#F1F1F1"/>
<path d="M100.416 216.432L106.812 252.05L89.8281 282.021L99.9746 285.983L117.18 256.93L119.385 249.006L120.709 290.384L129.859 290.107L134.055 251.47L127.326 215.552L100.416 216.432Z" fill="#673AB7"/>
<path d="M112.557 224.852C103.16 224.852 97.1938 223.059 97.0601 223.03L96.8438 222.984L101.738 200.341L101.959 179.454C101.959 170.603 107.797 164.077 108.607 163.475C108.743 162.938 108.996 162.437 109.346 162.007C109.697 161.577 110.137 161.228 110.637 160.986C112.584 160.104 114.964 161.162 115.064 161.208L122.206 163.88L122.24 163.979C122.326 164.232 131.733 195.049 131.733 195.049C131.733 195.049 131.164 221.976 130.966 222.858C130.966 222.858 117.778 224.852 112.557 224.852Z" fill="#FA6F20"/>
<path d="M119.779 157.307C125.11 157.307 129.432 152.994 129.432 147.674C129.432 142.354 125.11 138.041 119.779 138.041C114.447 138.041 110.125 142.354 110.125 147.674C110.125 152.994 114.447 157.307 119.779 157.307Z" fill="#9F616A"/>
<path opacity="0.2" d="M109.014 181.162L125.903 204.675L128.397 193.695L109.014 181.162Z" fill="black"/>
<path d="M161.964 197.16C161.489 197.535 160.937 197.802 160.348 197.941C159.759 198.08 159.146 198.089 158.553 197.966C157.96 197.843 157.401 197.592 156.916 197.231C156.43 196.869 156.03 196.406 155.744 195.874L141.207 198.195L144.356 191.239L157.678 190.1C158.606 189.679 159.657 189.613 160.631 189.913C161.605 190.214 162.435 190.861 162.964 191.731C163.492 192.601 163.682 193.634 163.498 194.635C163.313 195.636 162.768 196.534 161.964 197.16H161.964Z" fill="#9F616A"/>
<path d="M145.105 190.843L150.329 190.332L151.776 197.602L145.204 197.718L145.105 190.843Z" fill="#F1F1F1"/>
<path d="M149.386 200.135L123.805 197.863L110.888 177.365L110.848 177.183C110.482 175.509 110.739 173.759 111.571 172.259C112.403 170.76 113.753 169.614 115.37 169.035C116.987 168.456 118.759 168.485 120.357 169.115C121.954 169.744 123.267 170.933 124.051 172.458L131.633 187.217L146.936 189.525L149.386 200.135Z" fill="#FA6F20"/>
<path d="M111.556 156.037L119.568 156.324C120.057 156.342 121.382 151.082 121.556 149.991C121.693 149.281 122.084 148.645 122.657 148.201C123.23 147.758 123.945 147.538 124.669 147.582C125.269 147.639 126.781 146.521 128.342 145.197C131.305 142.683 131.151 137.962 127.896 135.838C127.807 135.78 127.72 135.727 127.634 135.679C125.58 134.532 123.178 134.147 120.826 134.118C118.693 134.091 116.499 134.359 114.62 135.366C111.251 137.172 109.458 141.119 109.301 144.932C109.143 148.745 110.368 152.473 111.758 156.028" fill="#673AB7"/>
<defs>
<linearGradient id="paint0_linear_1207_1274" x1="9.75586" y1="0.000488281" x2="208.328" y2="0.000488281" gradientUnits="userSpaceOnUse">
<stop stop-color="#3D14A4"/>
<stop offset="0.152279" stop-color="#3D14A4"/>
<stop offset="0.428571" stop-color="#E5346C"/>
<stop offset="0.571429" stop-color="#CE007A"/>
<stop offset="0.714286" stop-color="#AF0089"/>
<stop offset="0.857143" stop-color="#830098"/>
<stop offset="1" stop-color="#3D14A4"/>
</linearGradient>
<linearGradient id="paint1_linear_1207_1274" x1="57.4727" y1="66.3821" x2="152.775" y2="66.3821" gradientUnits="userSpaceOnUse">
<stop stop-color="#3D14A4"/>
<stop offset="0.152279" stop-color="#3D14A4"/>
<stop offset="0.428571" stop-color="#E5346C"/>
<stop offset="0.571429" stop-color="#CE007A"/>
<stop offset="0.714286" stop-color="#AF0089"/>
<stop offset="0.857143" stop-color="#830098"/>
<stop offset="1" stop-color="#3D14A4"/>
</linearGradient>
<linearGradient id="paint2_linear_1207_1274" x1="63.1445" y1="89.0288" x2="136.22" y2="89.0288" gradientUnits="userSpaceOnUse">
<stop stop-color="#3D14A4"/>
<stop offset="0.152279" stop-color="#3D14A4"/>
<stop offset="0.428571" stop-color="#E5346C"/>
<stop offset="0.571429" stop-color="#CE007A"/>
<stop offset="0.714286" stop-color="#AF0089"/>
<stop offset="0.857143" stop-color="#830098"/>
<stop offset="1" stop-color="#3D14A4"/>
</linearGradient>
<linearGradient id="paint3_linear_1207_1274" x1="87.6426" y1="30.9534" x2="131.603" y2="30.9534" gradientUnits="userSpaceOnUse">
<stop stop-color="#3D14A4"/>
<stop offset="0.152279" stop-color="#3D14A4"/>
<stop offset="0.428571" stop-color="#E5346C"/>
<stop offset="0.571429" stop-color="#CE007A"/>
<stop offset="0.714286" stop-color="#AF0089"/>
<stop offset="0.857143" stop-color="#830098"/>
<stop offset="1" stop-color="#3D14A4"/>
</linearGradient>
<linearGradient id="paint4_linear_1207_1274" x1="93.3145" y1="46.5605" x2="127.119" y2="46.5605" gradientUnits="userSpaceOnUse">
<stop stop-color="#3D14A4"/>
<stop offset="0.152279" stop-color="#3D14A4"/>
<stop offset="0.428571" stop-color="#E5346C"/>
<stop offset="0.571429" stop-color="#CE007A"/>
<stop offset="0.714286" stop-color="#AF0089"/>
<stop offset="0.857143" stop-color="#830098"/>
<stop offset="1" stop-color="#3D14A4"/>
</linearGradient>
<linearGradient id="paint5_linear_1207_1274" x1="68.8184" y1="85.7498" x2="164.12" y2="85.7498" gradientUnits="userSpaceOnUse">
<stop stop-color="#3D14A4"/>
<stop offset="0.152279" stop-color="#3D14A4"/>
<stop offset="0.428571" stop-color="#E5346C"/>
<stop offset="0.571429" stop-color="#CE007A"/>
<stop offset="0.714286" stop-color="#AF0089"/>
<stop offset="0.857143" stop-color="#830098"/>
<stop offset="1" stop-color="#3D14A4"/>
</linearGradient>
<linearGradient id="paint6_linear_1207_1274" x1="74.4902" y1="108.396" x2="147.565" y2="108.396" gradientUnits="userSpaceOnUse">
<stop stop-color="#3D14A4"/>
<stop offset="0.152279" stop-color="#3D14A4"/>
<stop offset="0.428571" stop-color="#E5346C"/>
<stop offset="0.571429" stop-color="#CE007A"/>
<stop offset="0.714286" stop-color="#AF0089"/>
<stop offset="0.857143" stop-color="#830098"/>
<stop offset="1" stop-color="#3D14A4"/>
</linearGradient>
<linearGradient id="paint7_linear_1207_1274" x1="80.1621" y1="105.117" x2="175.464" y2="105.117" gradientUnits="userSpaceOnUse">
<stop stop-color="#3D14A4"/>
<stop offset="0.152279" stop-color="#3D14A4"/>
<stop offset="0.428571" stop-color="#E5346C"/>
<stop offset="0.571429" stop-color="#CE007A"/>
<stop offset="0.714286" stop-color="#AF0089"/>
<stop offset="0.857143" stop-color="#830098"/>
<stop offset="1" stop-color="#3D14A4"/>
</linearGradient>
<linearGradient id="paint8_linear_1207_1274" x1="85.834" y1="114.801" x2="181.136" y2="114.801" gradientUnits="userSpaceOnUse">
<stop stop-color="#3D14A4"/>
<stop offset="0.152279" stop-color="#3D14A4"/>
<stop offset="0.428571" stop-color="#E5346C"/>
<stop offset="0.571429" stop-color="#CE007A"/>
<stop offset="0.714286" stop-color="#AF0089"/>
<stop offset="0.857143" stop-color="#830098"/>
<stop offset="1" stop-color="#3D14A4"/>
</linearGradient>
</defs>
</svg>
