<svg width="293" height="268" viewBox="0 0 293 268" fill="none" xmlns="http://www.w3.org/2000/svg">
<g clip-path="url(#clip0_1181_206)">
<path d="M187.46 213.677L190.257 219.95C187.983 219.588 185.868 221.531 185.821 224.025C185.773 226.519 187.802 229.114 190.076 229.469C189.641 231.405 187.766 232.259 186.137 233.042C184.509 233.825 182.754 235.123 182.876 237.186C182.973 238.843 184.343 240.306 185.798 240.894C187.253 241.482 188.779 241.392 190.253 241.293C188.02 243.629 187.802 248.019 189.763 251.169C191.724 254.319 195.641 255.87 198.573 254.657C196.501 257.235 196.951 261.955 199.523 264.614C202.115 267.296 205.872 267.555 209.156 267.273C217.519 266.566 225.488 263.408 232.065 258.194C234.576 256.199 236.921 253.853 238.353 250.792C239.785 247.732 240.207 243.857 238.873 240.374C239.233 244.737 243.6 248.183 247.528 248.376C251.457 248.568 254.887 246.356 257.801 243.833C261.677 240.477 265.266 235.773 264.734 229.97C264.471 227.097 263.216 224.334 261.985 221.657L259.599 216.468C258.636 214.374 257.651 212.243 256.201 210.485C254.751 208.728 252.738 207.367 250.725 207.38C251.185 205.276 251.648 203.094 251.262 200.859C250.876 198.624 249.398 196.309 247.389 195.786C244.831 195.12 242.664 197.48 240.092 197.258C237.617 197.043 235.572 194.56 233.169 193.575C232.179 193.148 231.086 193.017 230.024 193.201C228.962 193.385 227.976 193.875 227.188 194.61C225.664 196.097 225.029 198.61 225.576 200.988C226.055 203.07 227.329 204.907 228.103 206.916C228.877 208.925 228.997 211.507 227.511 212.604C225.718 213.928 222.989 212.127 221.589 209.948C220.188 207.768 219.384 205.13 217.613 203.297C215.522 201.134 212.25 200.627 210.098 202.133C207.945 203.638 207.122 207.011 208.207 209.877C209.095 212.221 211.127 214.592 210.422 216.799C209.677 219.132 206.417 218.836 204.451 217.188C202.485 215.539 201.179 213.056 199.237 211.37C197.264 209.659 194.688 208.909 192.427 209.388C191.28 209.654 190.218 210.205 189.34 210.989C188.462 211.774 187.795 212.767 187.402 213.877" fill="#E6E6E6"/>
<path d="M232.755 196.048L226.95 198.745C226.078 199.176 225.088 199.309 224.132 199.125C223.29 198.926 222.72 198.41 222.57 197.711L221.22 191.402C220.965 190.212 221.95 188.804 223.563 188.054L226.769 186.565C228.382 185.815 230.094 185.97 230.839 186.933L234.789 192.034C235.228 192.599 235.254 193.367 234.863 194.139C234.388 194.989 233.647 195.659 232.755 196.048Z" fill="#3F3D56"/>
<path d="M52.7524 79.4448C58.21 64.5078 66.7267 50.875 77.7573 39.4196C87.1158 29.7045 101.681 30.1082 101.681 30.1082L101.764 30.0049C105.269 25.6822 109.973 22.4908 115.286 20.8313C120.598 19.1718 126.282 19.118 131.625 20.6767C133.014 21.0752 134.082 21.2519 134.59 21.0744C143.852 17.8328 143.417 10.5164 151.407 4.62226C165.399 -5.69795 211.808 6.12365 218.353 25.1141C223.656 40.5054 247.332 47.9654 256.177 59.7385C257.56 61.5794 258.917 63.4416 260.248 65.3252C260.872 66.2002 261.489 67.0818 262.099 67.9701C268.366 77.0454 273.988 86.5495 278.924 96.4122C282.16 102.856 284.973 109.504 287.345 116.314C296.569 143.28 293.415 163.372 267.98 158.408C264.969 157.819 262.031 157.292 259.164 156.827C255.014 156.15 251.008 155.593 247.147 155.157C241.948 154.566 237.002 154.178 232.308 153.995C230.73 153.931 229.181 153.889 227.66 153.867C205.182 153.555 188.509 157.786 175.807 164.353C173.653 165.464 171.613 166.639 169.685 167.878C166.741 169.76 163.929 171.842 161.271 174.111C157.592 177.268 154.199 180.744 151.133 184.499L150.964 184.705C136.108 202.878 131.218 222.996 120.884 226.538C76.7062 241.683 48.7659 186.783 45.9005 133.079C45.7559 130.373 45.676 127.674 45.6608 124.984C45.6518 123.781 45.6577 122.581 45.6785 121.385C45.7239 118.264 45.8615 115.163 46.0919 112.1C46.1779 110.928 46.2777 109.763 46.3913 108.604C46.5164 107.355 46.6526 106.113 46.8099 104.878C47.9338 95.8293 49.8998 87.2201 52.7524 79.4448Z" fill="#6C63FF"/>
<path d="M189.679 108.992C186.151 110.635 186.093 117.992 187.199 120.376L189.204 124.691L201.983 118.754L199.978 114.439C198.87 112.056 193.209 107.355 189.679 108.992Z" fill="#3F3D56"/>
<path d="M155.339 170.944C155.114 170.944 154.892 170.889 154.693 170.785C154.494 170.682 154.322 170.531 154.193 170.347C154.064 170.163 153.982 169.95 153.953 169.727C153.924 169.504 153.949 169.277 154.026 169.066C154.088 168.894 154.184 168.735 154.309 168.6C154.433 168.465 154.583 168.356 154.749 168.279L220.746 137.616C220.912 137.539 221.092 137.495 221.276 137.487C221.459 137.479 221.642 137.508 221.814 137.571C221.987 137.634 222.145 137.73 222.28 137.854C222.415 137.978 222.524 138.128 222.602 138.294C222.757 138.63 222.773 139.014 222.646 139.362C222.519 139.71 222.259 139.993 221.923 140.15H221.923L155.927 170.813C155.743 170.899 155.542 170.943 155.339 170.944Z" fill="#3F3D56"/>
<path d="M206.962 121.506L188.097 130.271L217.69 193.963L236.554 185.198L206.962 121.506Z" fill="#E6E6E6"/>
<path d="M136.144 41.3271C132.616 42.9697 132.558 50.327 133.664 52.7109L135.669 57.0259L148.448 51.0885L146.444 46.7735C145.335 44.3905 139.675 39.6901 136.144 41.3271Z" fill="#3F3D56"/>
<path d="M215.195 203.37L209.39 206.067C208.518 206.498 207.528 206.631 206.572 206.447C205.73 206.248 205.16 205.732 205.01 205.033L203.66 198.724C203.405 197.534 204.39 196.126 206.003 195.376L209.209 193.887C210.822 193.137 212.534 193.292 213.279 194.255L217.229 199.356C217.668 199.921 217.694 200.689 217.303 201.461C216.828 202.311 216.087 202.981 215.195 203.37Z" fill="#3F3D56"/>
<path d="M197.347 212.225L191.542 214.922C190.669 215.353 189.68 215.486 188.724 215.302C187.881 215.103 187.312 214.587 187.162 213.888L185.811 207.579C185.556 206.389 186.542 204.981 188.155 204.231L191.361 202.742C192.974 201.992 194.686 202.147 195.431 203.11L199.381 208.211C199.819 208.776 199.846 209.544 199.455 210.316C198.979 211.166 198.239 211.836 197.347 212.225Z" fill="#3F3D56"/>
<path d="M158.462 64.6746L139.597 73.4395L199.414 202.187L218.279 193.422L158.462 64.6746Z" fill="#E6E6E6"/>
<path d="M178.035 131.044L175.918 126.386L177.137 125.824L179.247 130.467L209.805 198.222L208.588 198.788" fill="#3F3D56"/>
<path d="M201.91 127.172L199.793 122.514L201.012 121.952L203.122 126.595L233.681 194.351L232.464 194.916" fill="#3F3D56"/>
<path d="M167.365 74.978L141.804 86.854C140.176 84.3222 135.271 71.348 136.372 67.4986L135.545 63.8278L153.195 55.6277L155.557 58.5337C159.064 59.6097 165.891 71.796 167.365 74.978Z" fill="#E6E6E6"/>
<path d="M153.932 55.7846L135.719 64.2467C135.047 64.559 134.331 64.4442 134.12 63.9902C134.09 63.9247 134.071 63.8546 134.065 63.7828L133.122 53.7269C133.082 53.2963 133.45 52.8083 134.013 52.5468L146.091 46.935C146.654 46.6736 147.265 46.7067 147.568 47.0153L154.645 54.2209C155.007 54.5894 154.811 55.2203 154.206 55.6299C154.119 55.6887 154.028 55.7405 153.932 55.7846Z" fill="#E6E6E6"/>
<path d="M168.218 134.569C168.021 134.569 167.825 134.546 167.633 134.5C167.363 134.444 167.109 134.327 166.891 134.158C166.673 133.988 166.497 133.772 166.376 133.524L155.241 109.558C154.78 108.565 155.399 107.297 156.62 106.729L172.925 99.1536C174.146 98.5858 175.515 98.9318 175.976 99.9238L187.111 123.89C187.222 124.143 187.274 124.417 187.263 124.693C187.252 124.968 187.177 125.238 187.046 125.48C186.76 126.03 186.297 126.466 185.732 126.719L169.427 134.294C169.049 134.472 168.636 134.566 168.218 134.569Z" fill="#3F3D56"/>
<path d="M170.448 138.197L151.583 146.961L181.176 210.654L200.041 201.889L170.448 138.197Z" fill="#E6E6E6"/>
<path d="M147.206 56.8353L141.674 59.4057C140.606 59.9017 139.166 59.0752 138.464 57.5635C137.761 56.0519 138.059 54.4181 139.126 53.9221L144.658 51.3518C145.726 50.8558 147.166 51.6823 147.868 53.1939C148.571 54.7056 148.274 56.3393 147.206 56.8353Z" fill="#3F3D56"/>
<path d="M153.533 125.512C150.005 127.155 149.947 134.512 151.053 136.896L153.058 141.211L165.838 135.274L163.833 130.959C162.724 128.576 157.064 123.875 153.533 125.512Z" fill="#3F3D56"/>
<path d="M94.9278 110.826C93.6817 111.657 92.4065 109.681 93.6764 108.887C94.9224 108.057 96.1977 110.033 94.9278 110.826Z" fill="#E6E6E6"/>
<path d="M224.627 82.4345C223.381 83.2647 222.106 81.2887 223.376 80.4954C224.622 79.6652 225.897 81.6412 224.627 82.4345Z" fill="#E6E6E6"/>
<path d="M136.225 105.019C134.979 105.849 133.703 103.873 134.973 103.08C136.219 102.25 137.495 104.226 136.225 105.019Z" fill="#E6E6E6"/>
<path d="M94.9278 182.452C93.6817 183.282 92.4065 181.306 93.6764 180.512C94.9224 179.682 96.1977 181.658 94.9278 182.452Z" fill="#E6E6E6"/>
<path d="M158.486 20.8109C157.24 21.6411 155.965 19.6652 157.235 18.8718C158.481 18.0417 159.756 20.0176 158.486 20.8109Z" fill="#E6E6E6"/>
<path d="M97.1861 58.882C95.94 59.7122 94.6648 57.7362 95.9347 56.9429C97.1807 56.1127 98.456 58.0887 97.1861 58.882Z" fill="#E6E6E6"/>
<path d="M185.356 47.9678L184.563 47.7939L184.736 47.0008L184.208 46.885L184.034 47.6781L183.241 47.5045L183.125 48.0329L183.918 48.2068L183.745 48.9996L184.273 49.1154L184.447 48.3224L185.24 48.4963L185.356 47.9678Z" fill="#E6E6E6"/>
<path d="M56.2694 114.037L55.4767 113.863L55.6503 113.07L55.1218 112.954L54.9479 113.747L54.1549 113.573L54.0391 114.102L54.8321 114.276L54.6585 115.069L55.187 115.184L55.3609 114.391L56.1536 114.565L56.2694 114.037Z" fill="#E6E6E6"/>
<path d="M218.841 147.738C218.182 148.044 217.428 148.075 216.745 147.826C216.062 147.576 215.506 147.066 215.199 146.407L211.936 139.385C211.631 138.725 211.599 137.971 211.849 137.289C212.099 136.607 212.61 136.051 213.269 135.745C213.928 135.439 214.682 135.407 215.364 135.656C216.047 135.905 216.603 136.415 216.91 137.074L220.173 144.096C220.478 144.756 220.51 145.51 220.26 146.192C220.011 146.875 219.5 147.431 218.841 147.738Z" fill="#3F3D56"/>
<path d="M163.348 173.549C162.688 173.855 161.934 173.887 161.252 173.637C160.569 173.387 160.013 172.877 159.706 172.218L156.443 165.196C156.137 164.536 156.106 163.782 156.356 163.1C156.606 162.418 157.117 161.862 157.776 161.556C158.435 161.25 159.189 161.218 159.871 161.467C160.554 161.716 161.11 162.226 161.417 162.885L164.68 169.907C164.985 170.567 165.017 171.321 164.767 172.004C164.517 172.686 164.007 173.242 163.348 173.549Z" fill="#3F3D56"/>
<path d="M213.815 132.396L191.939 142.56C190.546 140.393 186.347 129.289 187.29 125.994L187.753 122.309L200.815 115.9L203.709 118.322C207.788 116.943 213.782 127.048 213.815 132.396Z" fill="#E6E6E6"/>
<path d="M203.659 131.691L198.127 134.261C197.06 134.757 195.435 133.535 194.507 131.536C193.578 129.537 193.691 127.507 194.759 127.011L200.291 124.441C201.359 123.945 202.983 125.168 203.911 127.166C204.84 129.165 204.727 131.195 203.659 131.691Z" fill="#3F3D56"/>
<path d="M156.741 144.917L154.624 140.259L155.843 139.697L157.953 144.34L188.511 212.096L187.294 212.661" fill="#3F3D56"/>
<path d="M177.669 148.916L155.793 159.08C152.565 157.413 147.633 146.51 151.144 142.514L151.607 138.829L164.669 132.42L167.564 134.842C170.565 135.763 176.408 146.192 177.669 148.916Z" fill="#E6E6E6"/>
<path d="M167.062 147.242L161.53 149.812C160.463 150.308 158.939 149.303 158.135 147.571C157.33 145.84 157.544 144.027 158.612 143.531L164.144 140.961C165.212 140.465 166.735 141.47 167.539 143.202C168.344 144.933 168.13 146.746 167.062 147.242Z" fill="#3F3D56"/>
<path d="M56.1885 100.12C74.5418 100.12 89.4201 85.242 89.4201 66.8887C89.4201 48.5355 74.5418 33.6572 56.1885 33.6572C37.8353 33.6572 22.957 48.5355 22.957 66.8887C22.957 85.242 37.8353 100.12 56.1885 100.12Z" fill="#FF6584"/>
<path opacity="0.3" d="M192.443 101.501L212.638 42.52L190.463 100.795C190.353 100.933 190.278 101.096 190.244 101.269C190.21 101.442 190.217 101.621 190.266 101.79C190.314 101.96 190.403 102.116 190.523 102.244C190.644 102.373 190.794 102.471 190.96 102.531C191.126 102.59 191.304 102.609 191.479 102.585C191.654 102.562 191.821 102.497 191.966 102.397C192.111 102.296 192.23 102.162 192.313 102.006C192.396 101.851 192.441 101.677 192.443 101.501H192.443Z" fill="#F0F0F0"/>
<path d="M243.92 66.3445C239.967 67.6583 235.584 68.9489 230.772 70.2164C205.883 76.7694 172.52 81.881 136.832 84.61C101.143 87.339 67.3917 87.3587 41.795 84.6662C29.326 83.3545 19.4638 81.4679 12.4823 79.0585C5.09091 76.508 1.20709 73.4343 0.938562 69.9235C0.415653 63.0837 13.9126 57.0637 25.3272 53.218L25.6364 54.1352C9.96105 59.4164 1.5327 64.9973 1.90379 69.8498C2.37623 76.0302 16.9529 81.0795 41.8962 83.7036C67.4367 86.3902 101.126 86.3696 136.758 83.6451C172.39 80.9203 205.691 75.8188 230.526 69.2803C254.78 62.8951 268.42 55.6879 267.947 49.5074C267.555 44.3759 257.44 39.9863 239.465 37.1464L239.617 36.1904C252.677 38.2539 268.361 42.2264 268.912 49.4336C269.181 52.9445 265.809 56.5727 258.892 60.2174C254.948 62.2949 249.938 64.3446 243.92 66.3445Z" fill="#3F3D56"/>
<path d="M253.685 125.284C255.592 125.284 257.138 123.738 257.138 121.831C257.138 119.924 255.592 118.378 253.685 118.378C251.778 118.378 250.232 119.924 250.232 121.831C250.232 123.738 251.778 125.284 253.685 125.284Z" fill="#FF6584"/>
<path d="M275.624 218.848C277.531 218.848 279.077 217.302 279.077 215.395C279.077 213.488 277.531 211.942 275.624 211.942C273.717 211.942 272.171 213.488 272.171 215.395C272.171 217.302 273.717 218.848 275.624 218.848Z" fill="#F2F2F2"/>
<path d="M157.863 239.873C161.581 239.873 164.595 236.858 164.595 233.14C164.595 229.422 161.581 226.408 157.863 226.408C154.144 226.408 151.13 229.422 151.13 233.14C151.13 236.858 154.144 239.873 157.863 239.873Z" fill="#F2F2F2"/>
<path d="M106.563 150.772C108.47 150.772 110.016 149.226 110.016 147.319C110.016 145.412 108.47 143.866 106.563 143.866C104.656 143.866 103.11 145.412 103.11 147.319C103.11 149.226 104.656 150.772 106.563 150.772Z" fill="#3F3D56"/>
<path d="M222.648 155.266L237.546 159.123L246.683 177.07L231.236 177.676L222.648 155.266Z" fill="#E6E6E6"/>
<path d="M188.262 129.393L196.461 137.597L217.286 182.622L213.452 185.935L188.262 129.393Z" fill="#CCCCCC"/>
<path d="M170.433 136.829L171.076 148.411L190.733 193.958L195.758 193.311L170.433 136.829Z" fill="#CCCCCC"/>
<path d="M169.896 183.616L161.873 196.748L167.787 215.999L179.31 205.692L169.896 183.616Z" fill="#E6E6E6"/>
<path d="M240.772 191.685C236.606 191.685 232.04 191.528 227.074 191.213C201.388 189.582 168.117 183.91 133.389 175.245C98.6608 166.579 66.6255 155.953 43.1843 145.325C31.7653 140.148 23.0014 135.247 17.1361 130.759C10.9263 126.008 8.21008 121.866 9.06251 118.45C10.7234 111.794 25.4302 110.338 37.4751 110.288L37.4792 111.256C20.9383 111.324 11.18 113.962 10.0018 118.684C8.5009 124.698 20.7412 134.087 43.5839 144.444C66.9736 155.048 98.9501 165.653 133.623 174.306C168.296 182.958 201.506 188.619 227.136 190.247C252.165 191.836 267.382 189.299 268.883 183.285C270.129 178.291 261.915 170.936 245.754 162.572L246.198 161.713C257.941 167.79 271.572 176.506 269.822 183.519C268.97 186.936 264.626 189.315 256.912 190.592C252.515 191.32 247.114 191.685 240.772 191.685Z" fill="#3F3D56"/>
</g>
<defs>
<clipPath id="clip0_1181_206">
<rect width="291.153" height="266.564" fill="white" transform="translate(0.923828 0.79834)"/>
</clipPath>
</defs>
</svg>
