<svg width="48" height="49" viewBox="0 0 48 49" fill="none" xmlns="http://www.w3.org/2000/svg">
<path d="M23.2296 40.1589L6.86767 23.2195L11.1025 19.7546L20.6309 27.3581C24.4808 22.642 33.1429 13.3061 45.0775 5.89514L46.0399 8.20505C35.0679 18.5034 26.1169 32.8441 23.2296 40.1589ZM44.0188 21.6795C44.2113 22.7383 44.3075 23.8932 44.3075 24.9519C44.3075 36.1165 35.2604 45.1637 24.0958 45.1637C12.9312 45.1637 3.88403 36.1165 3.88403 24.9519C3.88403 13.7873 12.9312 4.74018 24.0958 4.74018C26.7907 4.74018 29.3893 5.31766 31.6992 6.28012V2.23777C29.1968 1.37156 26.5982 0.986572 23.9995 0.986572C20.7271 0.986572 17.551 1.6603 14.6636 2.9115C11.7762 4.1627 9.27383 5.79889 7.06016 8.01256C4.8465 10.2262 3.11406 12.8249 1.95911 15.616C0.707903 18.5997 0.0341797 21.7758 0.0341797 24.9519C0.0341797 28.2243 0.707903 31.4004 1.95911 34.2878C3.21031 37.1752 4.94274 39.6776 7.06016 41.8913C9.27383 44.1049 11.8725 45.8374 14.6636 46.9923C17.6473 48.2435 20.8234 48.9173 23.9995 48.9173C27.2719 48.9173 30.448 48.2435 33.3354 46.9923C36.2228 45.7411 38.7252 44.1049 40.9389 41.8913C43.1526 39.6776 44.885 37.079 46.0399 34.2878C47.2911 31.3042 47.9649 28.1281 47.9649 24.9519C47.9649 23.8932 47.8686 22.7383 47.7724 21.6795H44.0188Z" fill="white"/>
</svg>
