<svg width="285" height="244" viewBox="0 0 285 244" fill="none" xmlns="http://www.w3.org/2000/svg">
<g clip-path="url(#clip0_1181_135)">
<mask id="path-1-inside-1_1181_135" fill="white">
<path d="M67.7427 75.8888C67.7427 41.2953 95.8866 13.1514 130.48 13.1514C165.074 13.1514 193.218 41.2953 193.218 75.8888C193.218 110.482 165.074 138.626 130.48 138.626C95.8866 138.626 67.7427 110.482 67.7427 75.8888ZM68.6691 75.8888C68.6691 109.972 96.3974 137.7 130.48 137.7C164.563 137.7 192.291 109.971 192.291 75.8888C192.291 41.8062 164.563 14.0778 130.48 14.0778C96.3974 14.0778 68.6691 41.8061 68.6691 75.8888H68.6691Z"/>
</mask>
<path d="M68.6691 75.8888H83.6691V60.8888H68.6691V75.8888ZM68.6691 75.8888H53.6691V90.8888H68.6691V75.8888ZM82.7427 75.8888C82.7427 49.5796 104.171 28.1514 130.48 28.1514V-1.84863C87.6023 -1.84863 52.7427 33.011 52.7427 75.8888H82.7427ZM130.48 28.1514C156.789 28.1514 178.218 49.5796 178.218 75.8888H208.218C208.218 33.011 173.358 -1.84863 130.48 -1.84863V28.1514ZM178.218 75.8888C178.218 102.198 156.789 123.626 130.48 123.626V153.626C173.358 153.626 208.218 118.767 208.218 75.8888H178.218ZM130.48 123.626C104.171 123.626 82.7427 102.198 82.7427 75.8888H52.7427C52.7427 118.767 87.6023 153.626 130.48 153.626V123.626ZM53.6691 75.8888C53.6691 118.256 88.1131 152.7 130.48 152.7V122.7C104.682 122.7 83.6691 101.687 83.6691 75.8888H53.6691ZM130.48 152.7C172.847 152.7 207.291 118.256 207.291 75.8888H177.291C177.291 101.687 156.279 122.7 130.48 122.7V152.7ZM207.291 75.8888C207.291 33.5219 172.847 -0.92225 130.48 -0.92225V29.0778C156.279 29.0778 177.291 50.0904 177.291 75.8888H207.291ZM130.48 -0.92225C88.1131 -0.92225 53.6691 33.5219 53.6691 75.8888H83.6691C83.6691 50.0904 104.682 29.0778 130.48 29.0778V-0.92225ZM68.6691 90.8888H68.6691V60.8888H68.6691V90.8888Z" fill="#FA6F20" mask="url(#path-1-inside-1_1181_135)"/>
<path d="M119.379 76.1594C119.379 73.9639 120.03 71.8176 121.25 69.992C122.47 68.1664 124.203 66.7436 126.232 65.9034C128.26 65.0632 130.492 64.8433 132.646 65.2717C134.799 65.7 136.777 66.7573 138.33 68.3098C139.882 69.8623 140.939 71.8403 141.368 73.9937C141.796 76.1471 141.576 78.3792 140.736 80.4076C139.896 82.4361 138.473 84.1698 136.647 85.3896C134.822 86.6094 132.676 87.2605 130.48 87.2605C127.536 87.2605 124.712 86.0909 122.63 84.0091C120.548 81.9272 119.379 79.1036 119.379 76.1594V76.1594ZM130.48 65.5999C127.68 65.603 124.996 66.7166 123.017 68.6962C121.037 70.6758 119.924 73.3599 119.92 76.1595C119.92 78.2479 120.54 80.2895 121.7 82.026C122.86 83.7625 124.509 85.116 126.439 85.9152C128.369 86.7144 130.492 86.9236 132.54 86.5161C134.588 86.1087 136.47 85.103 137.947 83.6262C139.423 82.1494 140.429 80.2679 140.837 78.2195C141.244 76.1712 141.035 74.048 140.236 72.1185C139.437 70.189 138.083 68.5398 136.347 67.3795C134.61 66.2192 132.568 65.5999 130.48 65.5999Z" fill="#3F3D56"/>
<mask id="path-4-inside-2_1181_135" fill="white">
<path d="M109.361 76.1596C109.361 71.9827 110.599 67.8995 112.92 64.4265C115.241 60.9535 118.539 58.2466 122.398 56.6481C126.257 55.0497 130.503 54.6314 134.6 55.4463C138.697 56.2612 142.46 58.2726 145.413 61.2262C148.367 64.1798 150.378 67.9428 151.193 72.0395C152.008 76.1362 151.59 80.3826 149.991 84.2416C148.393 88.1006 145.686 91.399 142.213 93.7196C138.74 96.0401 134.657 97.2788 130.48 97.2788C127.707 97.2788 124.96 96.7325 122.398 95.6712C119.836 94.6098 117.508 93.0542 115.546 91.0931C113.585 89.132 112.03 86.8039 110.968 84.2416C109.907 81.6793 109.361 78.933 109.361 76.1596V76.1596ZM130.48 55.582C126.41 55.582 122.432 56.7889 119.048 59.05C115.664 61.3111 113.026 64.5249 111.469 68.2849C109.911 72.045 109.504 76.1825 110.298 80.1741C111.092 84.1658 113.052 87.8324 115.929 90.7102C118.807 93.588 122.474 95.5478 126.465 96.3418C130.457 97.1358 134.595 96.7283 138.355 95.1709C142.115 93.6134 145.328 90.9759 147.59 87.5919C149.851 84.208 151.058 80.2295 151.058 76.1596C151.051 70.704 148.881 65.4736 145.024 61.6159C141.166 57.7581 135.936 55.5882 130.48 55.582Z"/>
</mask>
<path d="M130.48 97.2788V96.2788V97.2788ZM130.48 55.582L130.481 54.582H130.48V55.582ZM151.058 76.1596H152.058V76.1585L151.058 76.1596ZM110.361 76.1596C110.361 72.1805 111.541 68.2906 113.752 64.9821L112.089 63.8709C109.658 67.5084 108.361 71.7849 108.361 76.1596L110.361 76.1596ZM113.752 64.9821C115.962 61.6735 119.104 59.0948 122.781 57.572L122.015 55.7243C117.974 57.3984 114.519 60.2334 112.089 63.8709L113.752 64.9821ZM122.781 57.572C126.457 56.0492 130.502 55.6508 134.405 56.4271L134.795 54.4656C130.504 53.6121 126.057 54.0501 122.015 55.7243L122.781 57.572ZM134.405 56.4271C138.308 57.2034 141.893 59.1196 144.706 61.9333L146.121 60.5191C143.027 57.4257 139.086 55.319 134.795 54.4656L134.405 56.4271ZM144.706 61.9333C147.52 64.747 149.436 68.3319 150.212 72.2346L152.174 71.8444C151.321 67.5537 149.214 63.6125 146.121 60.5191L144.706 61.9333ZM150.212 72.2346C150.989 76.1373 150.59 80.1826 149.068 83.8589L150.915 84.6243C152.589 80.5825 153.027 76.1351 152.174 71.8444L150.212 72.2346ZM149.068 83.8589C147.545 87.5352 144.966 90.6774 141.658 92.8881L142.769 94.551C146.406 92.1205 149.241 88.666 150.915 84.6243L149.068 83.8589ZM141.658 92.8881C138.349 95.0988 134.459 96.2788 130.48 96.2788V98.2788C134.855 98.2788 139.131 96.9815 142.769 94.551L141.658 92.8881ZM130.48 96.2788C127.838 96.2788 125.222 95.7584 122.781 94.7473L122.015 96.595C124.699 97.7066 127.575 98.2788 130.48 98.2788V96.2788ZM122.781 94.7473C120.34 93.7362 118.122 92.2542 116.254 90.386L114.839 91.8002C116.893 93.8542 119.332 95.4834 122.015 96.595L122.781 94.7473ZM116.254 90.386C114.385 88.5178 112.903 86.2998 111.892 83.8589L110.045 84.6242C111.156 87.3079 112.785 89.7463 114.839 91.8002L116.254 90.386ZM111.892 83.8589C110.881 81.4179 110.361 78.8017 110.361 76.1596L108.361 76.1596C108.361 79.0643 108.933 81.9406 110.045 84.6242L111.892 83.8589ZM108.361 76.1596V76.1596H110.361V76.1596H108.361ZM130.48 54.582C126.212 54.582 122.04 55.8475 118.492 58.2185L119.603 59.8815C122.823 57.7302 126.608 56.582 130.48 56.582V54.582ZM118.492 58.2185C114.944 60.5895 112.178 63.9595 110.545 67.9022L112.393 68.6676C113.874 65.0903 116.384 62.0327 119.603 59.8815L118.492 58.2185ZM110.545 67.9022C108.912 71.845 108.484 76.1836 109.317 80.3692L111.279 79.979C110.523 76.1814 110.911 72.245 112.393 68.6676L110.545 67.9022ZM109.317 80.3692C110.15 84.5549 112.205 88.3996 115.222 91.4173L116.636 90.0031C113.899 87.2651 112.034 83.7767 111.279 79.979L109.317 80.3692ZM115.222 91.4173C118.24 94.435 122.085 96.49 126.27 97.3226L126.661 95.361C122.863 94.6056 119.374 92.7411 116.636 90.0031L115.222 91.4173ZM126.27 97.3226C130.456 98.1552 134.795 97.7279 138.737 96.0947L137.972 94.247C134.395 95.7288 130.458 96.1165 126.661 95.361L126.27 97.3226ZM138.737 96.0947C142.68 94.4616 146.05 91.6959 148.421 88.1475L146.758 87.0364C144.607 90.2559 141.549 92.7652 137.972 94.247L138.737 96.0947ZM148.421 88.1475C150.792 84.5991 152.058 80.4273 152.058 76.1596H150.058C150.058 80.0317 148.909 83.8169 146.758 87.0364L148.421 88.1475ZM152.058 76.1585C152.051 70.4381 149.776 64.9537 145.731 60.9088L144.317 62.323C147.987 65.9934 150.052 70.97 150.058 76.1608L152.058 76.1585ZM145.731 60.9088C141.686 56.8638 136.202 54.5885 130.481 54.582L130.479 56.582C135.67 56.5879 140.646 58.6525 144.317 62.323L145.731 60.9088Z" fill="#FA6F20" mask="url(#path-4-inside-2_1181_135)"/>
<mask id="path-6-inside-3_1181_135" fill="white">
<path d="M89.3247 76.1596C89.3247 68.0199 91.7384 60.0629 96.2606 53.295C100.783 46.5271 107.21 41.2521 114.731 38.1372C122.251 35.0222 130.526 34.2072 138.509 35.7952C146.492 37.3832 153.825 41.3028 159.581 47.0585C165.337 52.8142 169.256 60.1473 170.844 68.1306C172.432 76.114 171.617 84.3889 168.502 91.909C165.387 99.4291 160.112 105.857 153.344 110.379C146.577 114.901 138.62 117.315 130.48 117.315C119.569 117.302 109.108 112.963 101.392 105.247C93.677 97.5317 89.337 87.0709 89.3247 76.1596ZM130.48 35.5459C122.447 35.5459 114.595 37.9279 107.916 42.3906C101.237 46.8533 96.0317 53.1963 92.9578 60.6174C89.8838 68.0386 89.0795 76.2047 90.6466 84.083C92.2137 91.9612 96.0818 99.1979 101.762 104.878C107.442 110.558 114.678 114.426 122.557 115.993C130.435 117.56 138.601 116.756 146.022 113.682C153.443 110.608 159.786 105.402 164.249 98.7234C168.712 92.0445 171.094 84.1922 171.094 76.1596C171.081 65.3919 166.799 55.0688 159.185 47.4549C151.571 39.841 141.248 35.5581 130.48 35.5459Z"/>
</mask>
<path d="M89.3247 76.1596C89.3247 68.0199 91.7384 60.0629 96.2606 53.295C100.783 46.5271 107.21 41.2521 114.731 38.1372C122.251 35.0222 130.526 34.2072 138.509 35.7952C146.492 37.3832 153.825 41.3028 159.581 47.0585C165.337 52.8142 169.256 60.1473 170.844 68.1306C172.432 76.114 171.617 84.3889 168.502 91.909C165.387 99.4291 160.112 105.857 153.344 110.379C146.577 114.901 138.62 117.315 130.48 117.315C119.569 117.302 109.108 112.963 101.392 105.247C93.677 97.5317 89.337 87.0709 89.3247 76.1596ZM130.48 35.5459C122.447 35.5459 114.595 37.9279 107.916 42.3906C101.237 46.8533 96.0317 53.1963 92.9578 60.6174C89.8838 68.0386 89.0795 76.2047 90.6466 84.083C92.2137 91.9612 96.0818 99.1979 101.762 104.878C107.442 110.558 114.678 114.426 122.557 115.993C130.435 117.56 138.601 116.756 146.022 113.682C153.443 110.608 159.786 105.402 164.249 98.7234C168.712 92.0445 171.094 84.1922 171.094 76.1596C171.081 65.3919 166.799 55.0688 159.185 47.4549C151.571 39.841 141.248 35.5581 130.48 35.5459Z" fill="#FA6F20"/>
<path d="M130.48 117.315L130.33 250.315L130.405 250.315H130.48V117.315ZM171.094 76.1596L304.094 76.1596V76.0844L304.094 76.0091L171.094 76.1596ZM222.325 76.1596C222.325 94.3248 216.938 112.082 206.846 127.186L-14.3248 -20.5959C-33.4613 8.04383 -43.6753 41.715 -43.6753 76.1596L222.325 76.1596ZM206.846 127.186C196.754 142.29 182.41 154.062 165.627 161.013L63.8336 -84.7388C32.011 -71.5575 4.81161 -49.2356 -14.3248 -20.5959L206.846 127.186ZM165.627 161.013C148.845 167.965 130.378 169.783 112.562 166.24L164.456 -94.6492C130.673 -101.369 95.6564 -97.9202 63.8336 -84.7388L165.627 161.013ZM112.562 166.24C94.7457 162.696 78.3805 153.948 65.5358 141.104L253.626 -46.9867C229.27 -71.3427 198.239 -87.9294 164.456 -94.6492L112.562 166.24ZM65.5358 141.104C52.6911 128.259 43.9437 111.894 40.3999 94.0776L301.289 42.1836C294.569 8.4008 277.982 -22.6307 253.626 -46.9867L65.5358 141.104ZM40.3999 94.0776C36.856 76.2615 38.6749 57.7946 45.6264 41.0121L291.378 142.806C304.56 110.983 308.009 75.9664 301.289 42.1836L40.3999 94.0776ZM45.6264 41.0121C52.5779 24.2297 64.3499 9.88547 79.4537 -0.206558L227.235 220.964C255.875 201.828 278.197 174.629 291.378 142.806L45.6264 41.0121ZM79.4537 -0.206558C94.5574 -10.2986 112.315 -15.6852 130.48 -15.6852V250.315C164.925 250.315 198.596 240.101 227.235 220.964L79.4537 -0.206558ZM130.63 -15.6851C154.941 -15.6577 178.248 -5.98817 195.438 11.2019L7.34718 199.292C39.9681 231.913 84.1967 250.263 130.33 250.315L130.63 -15.6851ZM195.438 11.2019C212.628 28.392 222.297 51.6989 222.325 76.0094L-43.6752 76.3098C-43.6231 122.443 -25.2737 166.671 7.34718 199.292L195.438 11.2019ZM130.48 -97.4541C96.1424 -97.4541 62.576 -87.2718 34.0253 -68.1949L181.807 152.976C166.614 163.128 148.752 168.546 130.48 168.546L130.48 -97.4541ZM34.0253 -68.1949C5.47464 -49.1179 -16.7778 -22.0031 -29.9182 9.72057L215.834 111.514C208.841 128.396 197 142.824 181.807 152.976L34.0253 -68.1949ZM-29.9182 9.72057C-43.0586 41.4444 -46.4967 76.3523 -39.7978 110.03L221.091 58.1359C224.656 76.0571 222.826 94.6329 215.834 111.514L-29.9182 9.72057ZM-39.7978 110.03C-33.0989 143.708 -16.5639 174.643 7.71651 198.923L195.807 10.8326C208.727 23.7531 217.526 40.2148 221.091 58.1359L-39.7978 110.03ZM7.71651 198.923C31.9968 223.203 62.9318 239.738 96.6096 246.437L148.504 -14.4515C166.425 -10.8868 182.886 -2.08783 195.807 10.8326L7.71651 198.923ZM96.6096 246.437C130.287 253.136 165.195 249.698 196.919 236.558L95.1252 -9.19422C112.007 -16.1867 130.582 -18.0163 148.504 -14.4515L96.6096 246.437ZM196.919 236.558C228.643 223.417 255.757 201.165 274.834 172.614L53.6635 24.8325C63.815 9.63967 78.2438 -2.20172 95.1252 -9.19422L196.919 236.558ZM274.834 172.614C293.911 144.064 304.094 110.497 304.094 76.1596L38.0936 76.1596C38.0936 57.8872 43.512 40.0253 53.6635 24.8325L274.834 172.614ZM304.094 76.0091C304.041 30.0198 285.749 -14.071 253.23 -46.5903L65.1395 141.5C47.8479 124.209 38.1214 100.764 38.0937 76.3102L304.094 76.0091ZM253.23 -46.5903C220.71 -79.1097 176.62 -97.4019 130.63 -97.454L130.329 168.546C105.875 168.518 82.431 158.792 65.1395 141.5L253.23 -46.5903Z" fill="#FA6F20" mask="url(#path-6-inside-3_1181_135)"/>
<path d="M130.48 81.0332C133.321 81.0332 135.624 78.7299 135.624 75.8888C135.624 73.0476 133.321 70.7444 130.48 70.7444C127.639 70.7444 125.335 73.0476 125.335 75.8888C125.335 78.7299 127.639 81.0332 130.48 81.0332Z" fill="#6C63FF"/>
<path d="M117.213 95.9248C120.054 95.9248 122.357 93.6216 122.357 90.7804C122.357 87.9392 120.054 85.636 117.213 85.636C114.372 85.636 112.068 87.9392 112.068 90.7804C112.068 93.6216 114.372 95.9248 117.213 95.9248Z" fill="#6C63FF"/>
<path d="M168.972 93.7588C171.813 93.7588 174.116 91.4555 174.116 88.6144C174.116 85.7732 171.813 83.47 168.972 83.47C166.131 83.47 163.828 85.7732 163.828 88.6144C163.828 91.4555 166.131 93.7588 168.972 93.7588Z" fill="#6C63FF"/>
<path d="M130.48 78.3255C131.826 78.3255 132.917 77.2345 132.917 75.8887C132.917 74.5429 131.826 73.4519 130.48 73.4519C129.134 73.4519 128.043 74.5429 128.043 75.8887C128.043 77.2345 129.134 78.3255 130.48 78.3255Z" fill="#2F2E41"/>
<path d="M168.972 91.0511C170.318 91.0511 171.409 89.9601 171.409 88.6143C171.409 87.2685 170.318 86.1775 168.972 86.1775C167.627 86.1775 166.536 87.2685 166.536 88.6143C166.536 89.9601 167.627 91.0511 168.972 91.0511Z" fill="#2F2E41"/>
<path d="M117.213 93.4881C118.559 93.4881 119.65 92.3971 119.65 91.0513C119.65 89.7055 118.559 88.6145 117.213 88.6145C115.867 88.6145 114.776 89.7055 114.776 91.0513C114.776 92.3971 115.867 93.4881 117.213 93.4881Z" fill="#2F2E41"/>
<path d="M16.7615 50.9791C18.1073 50.9791 19.1983 49.8881 19.1983 48.5423C19.1983 47.1965 18.1073 46.1055 16.7615 46.1055C15.4157 46.1055 14.3247 47.1965 14.3247 48.5423C14.3247 49.8881 15.4157 50.9791 16.7615 50.9791Z" fill="#FA6F20"/>
<path d="M130.344 48.6778H23.395V48.1362H130.886V76.0239H130.344V48.6778Z" fill="url(#paint0_linear_1181_135)"/>
<path d="M9.72217 48.5422C9.72217 47.1498 10.135 45.7888 10.9086 44.6311C11.6821 43.4734 12.7815 42.5711 14.0679 42.0383C15.3542 41.5055 16.7697 41.3661 18.1352 41.6377C19.5008 41.9093 20.7552 42.5798 21.7397 43.5643C22.7242 44.5488 23.3947 45.8032 23.6663 47.1688C23.9379 48.5343 23.7985 49.9498 23.2657 51.2361C22.7329 52.5225 21.8306 53.6219 20.6729 54.3955C19.5153 55.169 18.1542 55.5819 16.7619 55.5819C15.8374 55.5819 14.922 55.3998 14.0679 55.046C13.2138 54.6922 12.4378 54.1737 11.7841 53.52C11.1304 52.8663 10.6118 52.0902 10.258 51.2361C9.90425 50.3821 9.72217 49.4666 9.72217 48.5422ZM16.7619 42.044C15.4767 42.044 14.2203 42.4251 13.1517 43.1391C12.0831 43.8531 11.2502 44.868 10.7583 46.0554C10.2665 47.2428 10.1378 48.5494 10.3885 49.8099C10.6393 51.0704 11.2582 52.2283 12.167 53.1371C13.0757 54.0459 14.2336 54.6648 15.4941 54.9155C16.7547 55.1662 18.0612 55.0375 19.2486 54.5457C20.436 54.0539 21.4509 53.221 22.1649 52.1524C22.8789 51.0837 23.2601 49.8274 23.2601 48.5422C23.2581 46.8193 22.5728 45.1677 21.3546 43.9494C20.1364 42.7312 18.4847 42.046 16.7619 42.044Z" fill="#FA6F20"/>
<path d="M33.0071 121.105C34.3529 121.105 35.444 120.014 35.444 118.669C35.444 117.323 34.3529 116.232 33.0071 116.232C31.6613 116.232 30.5703 117.323 30.5703 118.669C30.5703 120.014 31.6613 121.105 33.0071 121.105Z" fill="#FA6F20"/>
<path d="M25.9673 118.669C25.9673 117.276 26.3802 115.915 27.1537 114.758C27.9272 113.6 29.0267 112.698 30.313 112.165C31.5993 111.632 33.0148 111.493 34.3804 111.764C35.7459 112.036 37.0003 112.706 37.9848 113.691C38.9693 114.675 39.6398 115.93 39.9114 117.295C40.183 118.661 40.0436 120.076 39.5108 121.363C38.978 122.649 38.0757 123.748 36.918 124.522C35.7604 125.295 34.3993 125.708 33.007 125.708C31.1399 125.708 29.3494 124.967 28.0292 123.646C26.709 122.326 25.9673 120.536 25.9673 118.669ZM33.007 112.17C31.7218 112.17 30.4654 112.552 29.3968 113.266C28.3282 113.98 27.4953 114.994 27.0034 116.182C26.5116 117.369 26.3829 118.676 26.6336 119.936C26.8844 121.197 27.5033 122.355 28.4121 123.264C29.3208 124.172 30.4787 124.791 31.7392 125.042C32.9998 125.293 34.3063 125.164 35.4937 124.672C36.6811 124.18 37.696 123.347 38.41 122.279C39.124 121.21 39.5052 119.954 39.5052 118.669C39.5032 116.946 38.8179 115.294 37.5997 114.076C36.3815 112.858 34.7298 112.172 33.007 112.17Z" fill="#FA6F20"/>
<path d="M244.513 62.3509C245.859 62.3509 246.95 61.2599 246.95 59.9141C246.95 58.5683 245.859 57.4773 244.513 57.4773C243.168 57.4773 242.077 58.5683 242.077 59.9141C242.077 61.2599 243.168 62.3509 244.513 62.3509Z" fill="#FA6F20"/>
<path d="M237.474 59.914C237.474 58.5217 237.887 57.1606 238.661 56.0029C239.434 54.8452 240.534 53.943 241.82 53.4101C243.106 52.8773 244.522 52.7379 245.887 53.0095C247.253 53.2812 248.507 53.9516 249.492 54.9362C250.476 55.9207 251.147 57.175 251.418 58.5406C251.69 59.9062 251.55 61.3216 251.018 62.608C250.485 63.8943 249.583 64.9937 248.425 65.7673C247.267 66.5408 245.906 66.9537 244.514 66.9537C243.589 66.9537 242.674 66.7716 241.82 66.4178C240.966 66.064 240.19 65.5455 239.536 64.8918C238.882 64.2381 238.364 63.4621 238.01 62.608C237.656 61.7539 237.474 60.8384 237.474 59.914ZM244.514 53.4158C242.791 53.4178 241.139 54.103 239.921 55.3212C238.703 56.5395 238.018 58.1912 238.016 59.914C238.016 61.1992 238.397 62.4555 239.111 63.5242C239.825 64.5928 240.84 65.4257 242.027 65.9175C243.214 66.4093 244.521 66.538 245.782 66.2873C247.042 66.0366 248.2 65.4177 249.109 64.5089C250.018 63.6001 250.636 62.4422 250.887 61.1817C251.138 59.9212 251.009 58.6146 250.517 57.4272C250.026 56.2398 249.193 55.2249 248.124 54.5109C247.055 53.7969 245.799 53.4158 244.514 53.4158V53.4158Z" fill="#FA6F20"/>
<path d="M168.701 60.7304L237.74 59.6433L237.749 60.1845L169.243 61.2635V88.6144H168.701V60.7304Z" fill="url(#paint1_linear_1181_135)"/>
<path d="M39.7764 118.398H116.942V91.0513H117.484V118.939H39.7764V118.398Z" fill="url(#paint2_linear_1181_135)"/>
<path d="M31.6535 61.2678H1.87012V63.1631H31.6535V61.2678Z" fill="#FA6F20"/>
<path d="M31.6535 66.6831H1.87012V68.5784H31.6535V66.6831Z" fill="#FA6F20"/>
<path d="M31.6535 72.0981H1.87012V73.9934H31.6535V72.0981Z" fill="#FA6F20"/>
<path d="M47.8991 131.394H18.1157V133.289H47.8991V131.394Z" fill="#FA6F20"/>
<path d="M47.8991 136.809H18.1157V138.705H47.8991V136.809Z" fill="#FA6F20"/>
<path d="M47.8991 142.224H18.1157V144.12H47.8991V142.224Z" fill="#FA6F20"/>
<path d="M259.405 72.9104H229.622V74.8057H259.405V72.9104Z" fill="#FA6F20"/>
<path d="M259.405 78.3257H229.622V80.221H259.405V78.3257Z" fill="#FA6F20"/>
<path d="M259.405 83.7407H229.622V85.636H259.405V83.7407Z" fill="#FA6F20"/>
<path d="M273.584 234.391L269.349 235.905L261.494 220.288L267.746 218.054L273.584 234.391Z" fill="#FFB8B8"/>
<path d="M262.474 242.992L262.412 242.82C261.91 241.41 261.988 239.858 262.629 238.505C263.269 237.153 264.42 236.109 265.829 235.604L274.17 232.623L276.132 238.111L262.474 242.992Z" fill="#2F2E41"/>
<path d="M246.041 238.581L241.543 238.581L239.403 221.231L246.042 221.232L246.041 238.581Z" fill="#FFB8B8"/>
<path d="M247.188 242.941L232.685 242.941V242.757C232.685 242.016 232.831 241.282 233.114 240.597C233.398 239.912 233.814 239.29 234.338 238.765C234.862 238.241 235.485 237.825 236.169 237.542C236.854 237.258 237.588 237.112 238.33 237.112H238.33L247.188 237.112L247.188 242.941Z" fill="#2F2E41"/>
<path d="M256.292 127.74L254.336 123.875C254.336 123.875 247.048 125.701 246.386 129.924L256.292 127.74Z" fill="#6C63FF"/>
<path d="M264.364 171.937L259.044 201.624L273.169 226.604L264.73 229.906L250.422 205.691L248.587 199.087L247.487 233.575L239.876 233.344L236.387 201.141L241.983 171.204L264.364 171.937Z" fill="#2F2E41"/>
<path d="M238.955 177.293C238.79 176.557 238.316 154.115 238.316 154.115C238.316 154.115 246.14 128.43 246.212 128.219L246.24 128.136L252.18 125.909C252.263 125.871 254.243 124.989 255.862 125.724C256.278 125.926 256.644 126.217 256.935 126.575C257.227 126.933 257.437 127.351 257.55 127.799C258.224 128.301 263.079 133.739 263.079 141.117L263.263 158.525L267.333 177.398L267.153 177.437C267.042 177.46 262.08 178.955 254.265 178.955C249.923 178.955 238.955 177.293 238.955 177.293Z" fill="#3F3D56"/>
<path d="M248.26 122.658C252.694 122.658 256.289 119.063 256.289 114.629C256.289 110.195 252.694 106.6 248.26 106.6C243.826 106.6 240.231 110.195 240.231 114.629C240.231 119.063 243.826 122.658 248.26 122.658Z" fill="#FFB8B8"/>
<path opacity="0.2" d="M259.698 150L245.652 169.597L243.578 160.445L259.698 150Z" fill="black"/>
<path d="M234.769 170.02C235.272 170 235.765 169.87 236.213 169.639C236.66 169.408 237.052 169.081 237.359 168.683C237.667 168.284 237.884 167.823 237.994 167.331C238.104 166.84 238.105 166.33 237.997 165.838L248.434 159.436L242.671 156.74L233.644 163.233C232.829 163.469 232.13 163.996 231.678 164.713C231.226 165.431 231.053 166.289 231.192 167.126C231.33 167.963 231.771 168.719 232.43 169.253C233.09 169.786 233.922 170.059 234.769 170.02Z" fill="#FFB8B8"/>
<path d="M241.983 156.895L238.409 159.4L241.44 164.783L245.652 161.297L241.983 156.895Z" fill="#6C63FF"/>
<path d="M240.112 157.053L248.52 147.307L245.298 133.865C244.965 132.475 245.149 131.013 245.816 129.749C246.483 128.486 247.586 127.508 248.921 126.999C250.256 126.489 251.73 126.483 253.069 126.981C254.408 127.479 255.52 128.448 256.197 129.706L256.27 129.842L259.238 149.804L244.323 165.092L240.112 157.053Z" fill="#3F3D56"/>
<path d="M255.099 121.6L248.435 121.839C248.029 121.853 246.926 117.47 246.782 116.56C246.668 115.968 246.342 115.438 245.866 115.069C245.389 114.699 244.795 114.516 244.193 114.553C243.694 114.6 242.436 113.668 241.138 112.564C238.674 110.469 238.802 106.534 241.509 104.764C241.583 104.716 241.656 104.672 241.727 104.632C243.435 103.676 245.432 103.355 247.389 103.33C249.163 103.308 250.987 103.531 252.55 104.371C255.352 105.876 256.843 109.166 256.974 112.344C257.105 115.521 256.086 118.629 254.93 121.592" fill="#2F2E41"/>
<path d="M291.707 243.051H210.624C210.527 243.051 210.434 243.013 210.365 242.944C210.296 242.875 210.257 242.782 210.257 242.684C210.257 242.587 210.296 242.494 210.365 242.425C210.434 242.356 210.527 242.317 210.624 242.317H291.707C291.804 242.317 291.897 242.356 291.966 242.425C292.035 242.494 292.074 242.587 292.074 242.684C292.074 242.782 292.035 242.875 291.966 242.944C291.897 243.013 291.804 243.051 291.707 243.051Z" fill="#3F3D56"/>
</g>
<defs>
<linearGradient id="paint0_linear_1181_135" x1="23.395" y1="48.1362" x2="130.886" y2="48.1362" gradientUnits="userSpaceOnUse">
<stop stop-color="#FF995D"/>
<stop offset="0.142857" stop-color="#FB795C"/>
<stop offset="0.285714" stop-color="#F35861"/>
<stop offset="0.428571" stop-color="#E5346C"/>
<stop offset="0.571429" stop-color="#CE007A"/>
<stop offset="0.714286" stop-color="#AF0089"/>
<stop offset="0.857143" stop-color="#830098"/>
<stop offset="1" stop-color="#3D14A4"/>
</linearGradient>
<linearGradient id="paint1_linear_1181_135" x1="168.701" y1="59.6433" x2="237.749" y2="59.6433" gradientUnits="userSpaceOnUse">
<stop stop-color="#FF995D"/>
<stop offset="0.142857" stop-color="#FB795C"/>
<stop offset="0.285714" stop-color="#F35861"/>
<stop offset="0.428571" stop-color="#E5346C"/>
<stop offset="0.571429" stop-color="#CE007A"/>
<stop offset="0.714286" stop-color="#AF0089"/>
<stop offset="0.857143" stop-color="#830098"/>
<stop offset="1" stop-color="#3D14A4"/>
</linearGradient>
<linearGradient id="paint2_linear_1181_135" x1="39.7764" y1="91.0513" x2="117.484" y2="91.0513" gradientUnits="userSpaceOnUse">
<stop stop-color="#FF995D"/>
<stop offset="0.142857" stop-color="#FB795C"/>
<stop offset="0.285714" stop-color="#F35861"/>
<stop offset="0.428571" stop-color="#E5346C"/>
<stop offset="0.571429" stop-color="#CE007A"/>
<stop offset="0.714286" stop-color="#AF0089"/>
<stop offset="0.857143" stop-color="#830098"/>
<stop offset="1" stop-color="#3D14A4"/>
</linearGradient>
<clipPath id="clip0_1181_135">
<rect width="291.15" height="243.051" fill="white" transform="translate(0.923828)"/>
</clipPath>
</defs>
</svg>
